<mxfile host="65bd71144e">
    <diagram id="Lu83tjWo-Wz-DkkKe9Yt" name="第 1 页">
        <mxGraphModel dx="1138" dy="1009" grid="0" gridSize="10" guides="1" tooltips="1" connect="1" arrows="1" fold="1" page="0" pageScale="1" pageWidth="850" pageHeight="1100" math="0" shadow="0">
            <root>
                <mxCell id="0"/>
                <mxCell id="1" parent="0"/>
                <mxCell id="2" value="" style="shape=image;verticalLabelPosition=bottom;labelBackgroundColor=default;verticalAlign=top;aspect=fixed;imageAspect=0;image=data:image/png,iVBORw0KGgoAAAANSUhEUgAAAdkAAAEcCAYAAACLYs4FAAAgAElEQVR4nOy9249l13ng9/vW2vtc6l7V1fcWm022SUrW0FQkZWzIthIEMWIExmAC2IaTMRLDD/kD8mD/AQaclzyMHSRvmUEejCCAM4ADCzYQR7ASjWxxICmSTYkiOWRTbLLvdT/XvdeXh7XXPvucOufUqVNdXSz2+pHVders+2Wtb33f+i6y8t/8h+rwiAgglBQf1+qrvP8//RVWIRewDKOq7O3tkWUZ6+vrxX5mp9/v8+jRIy5duoS1o3sfT5ZlPHr0iJ2dHZxzNJtNrl69Sr1eH7u+quKco9/v0+/3UdVy2d7eHt/85jdxzrG0tMRBu8PXvvbLbGxsDO0jz3P29vZoNBo457DWYq1BRMhzx87ONlmWcefOh7z66qusra2h6nj8+AkffPABL7/8Mg8fPuTFF28iYsr9Pn78CGPg6tWr7O/v8/DRI9bW1mg0Guzu7mKNYXFpiX6/j4hgjCGxln6/T61WY3//gCdbT7h65QpJmrK7s4OIsLy8jAKddptGs4kA9Xqdg1aL7e1t1lbXAWFra4s0TVhf38Bay+7uLnt7e1y/fh2AVuuAnZ1darUarVaLXq/Liy/e4uDggEePHtLpdFhYWGB9fYPd3V36/T7vvPMOzjnyPMcYQ6PR4ObNmywsNHn06BG/8AtvsLW1xVtvvUWSJNy+fZu7d+/SbDa5eHGTd955l/39fZIkYWVlhS984QvkeV4+tzRNynen1WpjRGguNLE2odPpkPX7LC4toaoYY8iyDFBETLmPJEnK59rptDHGUq/XMcavo6rkeQ6AMYZarQ4M3hvg2O96ZBLD91EVdra3ef/990lrCYuLC2RZxr1793j55dtcu3b10DajfOc732F1dZWbN2/y3nvvYa3l1q1bLCwsFEdUjECaptRqNYwxY/ezu7uLiGCtRVXLZ16r1cp3aBzOOX7605+yu7fHw0cPeeMX3uCP/uiP+Nbf/i0bGxv86Z/+KW+88caRd2Z3d5cHDx5w/fp1ms3mkeurwttv/4Td3V1effVVnjx5wvb2Ni+++CKrq6sTr3McWZbx7rvvcvny5SO3zfOc73//++R5TpIkZftxzlGr1fjiF79Y6Z+V8PyyHfgf/ru/4P6HGeoSEANOAIfaLnblEV/+tYv883/xn9NcaEy7cu7du8eTrSe8+sorWJsOLXXFv6KKivBzv/drbLX2ADB6aGf89m//Nv/LH/9LtNdFMeWz16IPUKflVSggClq8kqJadhWy9LtfUUT8QvWdUHh3BRAxrNdXee9/ni5kw4tX/TwrWZZhrX2qHdboeYROs9/vk+f5UIcN/gV58uQJ3W6Xy1evY4wZez7OOZxzJInFOYcq5bp+/z06nS7Ly8vl9t1ulydPnrC5ucnOzg4XLlwohLPBuZwszxAUGxqs6lBXLiLld+Gc/XcMXQPiz2V0+2JReY5hmSqgMnyfigXjrr3X69HpdFheXq6cm9+vc25o4FC97+X5Ep4LWJuUAqy6XmVLjLHs7+/TbrfZ2NgoG3hx6YeuP1zf0HXP8E6FVaqbjp73uPOMAvb0CO31wYP7bG1tl99fuHCB9fV1kiT0F5OfgW+nCc7l5T5h8L4bFGOEWq1GmqYTn6eq0m636fV6iAhJktBoNGZSCJxzbG1t8dFHH3Hjxg3+/M//nB/96Edsbm7ye7/3e7zwwgsz3Qvn3MQ+aRyjbUtVSZJkrnfWOS+eRGTq9lVla1QYh0H/WCGt8M3/4+949we73P9Q2NvpkmeA6XLr8w0aV/b5zf/6P2NlfWXQWOfguEL2N3/rN/nX//2f4LpeyBpryusEL2TLfR/qv/w+VRVZ+hdfVvE9JWIEY2x5M03xe62+yo//5P+cKmQD8zzESR3aSRgV/IEgYPv9fvnyjOKYbaTnX14vXE527uqHQc8cGQy9niPmEcSRs2Pc8wqDtfK7WffFoG+wRkiThDRNZ7agzcNJ+7eTbH8afessxxvH2HMYKLR0t3N++Hcf8v67j+j1HJgu/8V/9U9Z2KgfFjrHPzMUQY8hZH/rt3+Lf/XHf1JqsmKqShuFMqMIMlb4GwWnjkSDWutVHVQdFELGAVaHJfZp8bQF7KT9h8akqmRZVo7yym0nbD9uf76xxw76PDHLs31KRxrYkY7Nyd8pme/Ac6NP4ZxnPlbQJIp+6zjXKgpGBGO8RpokybHMp/Nw0r7trLd/Ghw6h1LmDL6qr8FXf+0Fvvqf3Bp8n+icbWiU47+hIuK1V2NRMYV8DCfj/B6D/BiRI061fNeSNK15c0Rhac6dIuT+5RWDU8jSfOxJVE/mJDztl2B0f9W/w9xK+HHOHRK2ZozZczxaMWGe8BrOoh0oJzK/nD8qw+YKp9YJic73XHVMD3Scw+Ke+eukKKrziPZZBrQTlxS3SDhq7CTFesYKaWKxxpRTVJ8GIXRaPOtrm/l4Y1cTCNri0ATnUzkzgqCd9R1V58ouI1yXK+SEqivnZKcdUlVJnDpy58hdPjwPaAwiDouQu+lC9rwRbliapuVcRTAjA37U8swZb7o+XebvyCNHoZxsCH4SIascKXVOA5E59IX575P3AQjd5lH78A6DxgjWWMxnWLCeX4p3fujVf1rP6fhmJa905rh+hjKQjwNLymT/I2EwA5iIMSTGYNUMdfNhY0GOodmdP4Jma4zxQtd/edan9cx4ln3xc3Rbz5SzGjo55nifBOYWspWrPM71BpEcX8dPG1XNVc78AQ0czdRbeGXwxgVH0sCQgsqwi02Sd3vAQI8qJ3LLTYWM3mlcw6eKwaDiKU0BnAPO0lr8tA/7vDyzTzNS/jPXlic6bhSYkaeNNV75ciIDK7bI2HdNdWDDGfVhTTTLfQ9lfPyPn6Og+DEIYE/ZMWAenrXXXKA6/DjvnGXHNO9gZto5fxaeyXnnLNrHPGGDkcg0quGAQSZOXZ/JASJJY2mx9LNw6ioBt94zSoCklo7fGor4yM+284BWPjhVrJntWgfej59enr2DzPDvebYXDnesR13HmQjgYDs95bZRHbB4R0dXht89K8Lxn/X75Bj26pzlmqOpODIbwqy+MtMiMBNJLKDe5RhbmHykNMGIKljDYauzTyLx1ltvkaYpL7/8MrVabeKoUlXp9XrUajXAJ2hoNIazdwTno7DOOLIs46OPPqLT6ZAkCTdu3KBer09NhhEyPQVHp7A8ZCYpr6piMh4+eX/c+/fus72zTb1e4/LlyywtLU0cYKgqeZZjjcHhk2BYa8tzyLKMPM/LDCizdA7tdptPPvkEVWVxcZErV64cuc0sHMcqMI8FYeiZFFlgwrXPE2i/vb3NJ598wtLSEpcuXRpkkSk8/0afiXOucMoZd14Qnvhg9DpIWiCVdfMQV11INWMN44xHAjx58oT79++TJAkXL11idWWlbFeT7qFzzic8MGbQBion7bNWQZImQ0etft7aesKDBw+wxnD58mVWVlYOn1/luNWMVnmelz4K1Xs0brtRtra3ePLkCS53XKpcb2VHhwYbWj6v4MQUvnfltYcY/kns7u7y6OEj8jzn6pUrPlHKlMFXlud+AGLM0HMIykJop6cZNxs5G4pWPfSdVIaoKoPhl+Kdm7WUhFo69R13gJaQ5eAUp3nZQRljSxOxAInzI0ZbamUDIfvmm29irSVJEhYWFsqG2u12efnllweuz85x7949Ll68SKvV4tGjR1wpGkVo4K1Wi1arxeXLlyc26FarxTe+8Q2WlpbK9IbNZhNrbZEer8Pt27fL7bMsY3t7m62tLS5cuECv1yNNUxqNBltbW6yurlKr1crvx6dXU/b39/h//t9v0e12SZKEz3/+80XmJlum7rtx40a5RZ7nHBzsU6vVaLfbPH78mNXVVdbX1zk4OGB/fx9VLbMnra+vH/mwQvrHhw8f8qu/+qtHCtkgzE0RrhC+C5SDCjmcKWmUfr9f3iPn3KEB0rTtsiyj2WyS5zndbpetrS36/T6XL18u37nqQOkoPvnkE/7tv/23XLt2jVu3bpWDHfD3fXl5ubyfqkqn06HT7fqGU7wvxhjanbZP+ZbWSnf7heYCeZ4BghapM8Hf+/3WAdZaGo0GtVqNhYUF74U/ptn9fz/8If/uu9/l5s2bvPTSS1y9erV8rw4ODlhaWuLq1avlOWZZRrfb5d69e+R5zvr6OvV6AyOG3CnWWvb39rCJZfPCBcSOdhaeH7/1Fj/84Q9ZX1/n9u3bQ22p0+mwsbHBhQsXyu16vR7dbpc0Tdnf9+/ryspKmVoytMs0TWk2mxOf0Vv/8I+8+967NJpNXn75ZS5duuz7EPH3cXVtjaXFxXKg0e312N/bo9fvY61hcWGRer1Ou93moHVALa3h1LG4uERzyrv23jvv8tO338YYQ+8LX2Bzc3Po2i5evMji4mL5XbfdLq8rDOjr9ToHBy1EhJ2dHRqNOmtr66Tp6cfQRsZzGpYnh2AQVEJqREF0IGTzEXXUFUJXRXyWxyD9jnFyIkLSerTlR5QSOmApTZyh300WxqvMIsJXv/pVut0u3/nOd2i324DvWPf29vjDP/zDshMN6cWazSZ3797l4cOHOOe4desWnU6Hvb09ut0u1lo6nc7EHJ1eeB3w9a9/nW63yw9+8AP29nzWjk6nw/b2Nn/wB39QxsBV05rt7+/T7/dZWVnh0qVLfPjhh6ytrbG0tESv5527bt26NfY6+/0+7Xabr3zlK3S7Xd555x2++93vkiQJ3W6XpaUlfvd3f7fslLMsY2triyRJ2Nvb48mTJ+Vg5Gc/+xl7e3usrKzw4MEDNjc3ZxKyq6urvPTSS9y5c2dizlPnHO12m263S71eL3M1LywskKYpnU6nfEZJktBsNjk4OCg9rINAPDg4IE1TFhcXMcawu7vLvXv3+NznPken0ykHNIuLi4gIe3t71Ot1Go1Gub/FxUUODg7Y3d3lc5/7HHmes7W1xb1794YGNKFTn5XV1VVee+01VJU333yTvb29MqmAtZbXX3+dL3/5y+X7sru7y8OHD2m3vVC9du0a9XqdTz75hE6nw8rKSvmevvjii/R6PZxz7O/vk6YpaZpy584ddnZ2SNOUCxcucOnSJRYaTSYpWgd7ezSbTV544QU++OADvve975Vx2ffu3eNLX/oSv/Ebv1Fqc/v7++zu7rK/v8+TJ0/Y2tpifX0DEUO/32dpcZH9gwPq9TobG2sYhnPmhkFSt9vlypUrvPjii7z//vu8+eab5TpbW1v88i//Ml//+tfLbXq9Hjs7O+VgpF6vl+n3Op0OWZbx8OFDVldXuXbt2sRcvTs7O2ysb3Dr1i1++tOf8ubff7dsg0mS8Cu/8iss375NSNm5XWj67XYbYwwXL17k4sWLfHz3Lvfu3RvkMXdKfUpGpt2dHa5du8bGxgbvvPMOf//3f18ua7Va/Pqv/zqvvPJKeb2tVotut0ur1UJVWVpaZmlpmQcPHqJOefjwIfV6HfeCsrl5IQrZM+Q0BO3R+5w08TGfFguQBDOOtTb4JZfmtjBqrU1Iut/r9fjrv/7rQvs1pckvaC9VM6HP86usrq7SbrfLTlhEuHPnTjmiXltbo9frTRSyIT/mN77xjVIwhIYfhMvQuddqXL16lQcPHpAUKdQuXbpUaq97e3v0+33q9Tr7+/sTG5WI0G63+da3vlWmZQzHzrKMg4ODMgdzuN79/f1Syw6FE4KmHzq4PM+5ePHikQ/KOcf29jZ37tyh1WrxwQcf8Oqrrx4y7bVaLT788ENUlcuXL2OM4eHDh6RpyuXLl3n48CEiQqvVYmFhgbW1NT744AMWFhZKjXxxcZG7d++ysrLCCy+8wOLiYpGIv1XmcX3y5AmPHz/m0qVL5T7q9TovvPAC7733Hs1mk1deeYVer8fBwUF5jrVajc3NTUR8zthgpjsODx484Nvf/nZpJg55qEWEhYUF+v1+uW6WZeXfWZaRZVkpPMIgKAjf69evl+erquzu7rK46DWspaUlrLVkWVaat6eZuFWVDz74gE6nM9Q+nHPlIKVKv9+n0+lw4cIFVlZWSNOUer1Op9Mtw8uajQZpWsOawwInvFNZlvH2229z586dobShQYiOphINRSdCG3DOcXBwQL/fZ2trq3yng6VokpBVVX784x/z3nvvHbKW1Gq10tQd6Hb9dS0tLQ31G8aY8n6HviIM5ibx/e9/nyzLxk4TjN6DVqtV3t80rbOwsEiW+QFnGIT7AUaXPHekk91RzhfzSqwzjD44DSF70v3Ok/02sWJQY0hqteEbKoMPMkHwJEnC1772tUPfd7tdvv3tbw99FyqyWGup1WosLy+X2uPy8jLXrl3j8ePHPH78eKiTHCV0pL/4i794KNvSwcEB3/ve94bjlwpNYWlpiWvXrrFTVKgJndz6+jqf+9znuH//Po1GY6qnYq1W47XXXis7mtCZtNttHjx4MCSgg1Cr1Wrs7OzQbDZ5/Pgxm5ubpeAPgv3g4GBqJxIE7N/8zd/wV3/1V4gIf/Znf8bv//7vH9K82+027Xab27dvl/d3aWmJJ0+ekCQJGxsb5bVvbGyQZRmLi4ssLy9z7949bt++zZ07d8qUc/v7+ywuLg5ptWFwAnDv3j3W19dpNpt0u13yPC8HWMHkGAid9dbWFgCLi4tYa+n1eqgqaZqWZrxp92N9fZ3XX399SAMOc7uhYkr4LiRy39vbKzvdUBVofX2dpaWlcsB16dKlsqMNJkWg1JBFpBR+QWhO48aNG/zSL/3SodSd//AP/1C+Q0EwhP2Fd7/T6ZQdvnM5/Syn1+uTprWJjjtB0F6/fp2XXnqpPPdwjLfffvtQlapGo0GWZezs7BRa8kY5JXDp0iUWFxdLjX7a9RpjuHXrFtevHy6ucffu3aGpCWDI4hOOB9BsNsu5+larNUgQM6FdWmv5/Oc/P1SQI/DWW28dEvgrKyskScLDhw9ZWFii1+1Rb9TZ2tpif3+fVrtVVo75zHBO3e6PK991zOcwo/o0mGc/qkqCtagovX4Ppci5KMMvdVfGz4mEzn/05e52u4fWDabJYJL66KOPSlPxhQsXSNOU5eVlLly4wJ07d7hw4cLYRhU6jL29vUPL2+32ofnFMKfk57jqQ05QwcQYOpgwGp5Enudsb2+TFsPbsG673S5Luo0SKtdYa0sT7MrKSjlH6ZybaioOGsiPfvQj/vIv/7K8to8//phvfvOb3Lx5c2iw0Wg0WF5eHpr3bDQapSYWOrS9wpy5tLTEyspKORcX5hxVlXq9XnbK1voycGH5wsICS0tLZVrKe/fusbq6WjplLS0tHbqWoFUG4bi3t1dqs+12m+Xl5VK4TBOyWZbRarWGhHiwlISBRfX5WGtZWFgo588XFha4cOECtVqttEDkeT7kmAdw+fLl8vPCwgKNRqPMDjZtIBiOHeafRwmac5Vms1maqa21pRk1CNp6vUa328EmPmvRtON2Op1yMFl9Jw8ODg5p0GEQkiQJ9XqdhYUFdnZ2AD/4De9CeC7pBNXOGEO322Vvb29o/j+cz+j1rq+vs76+zv7+Pnme0263abX8vOjy8jL1ep29vb1yADetXYb2N3q9o+3ZOcfOzk6pQTebCzx6+JjmQoNm4d/R7/dpNBrs7+/T6/VoNMZb8c4V59SVei6hNvLbVj5T+N7NMubwTr8jeuecg5UE41/M4E1lZeBVGTz+Jnn7hjnPUeGSJAmvvPLKkEYRzEahg3njjTfY3t4uHUhC59JsNnnttdcmnnCapty+ffuQlhSOe+PGjUPek61Wi5s3byIi3Lx5k8ePHyMiXLx4kfX1dT766COstayurk7VYq9fv15ec7j+cF3BNFu9N81mk4WFBVZXV7l//z4XL14sHUhChxLqLk6j1+vR6/V44403hjxxFxcXybJs6PksLS3xcz/3c0Opv5aWlrh48WJ5rs1mk42NjXJAsri4iOI7PmMMt2/fPhSatbq6Wt6fYMoPHXaWZbz66qtkWcbGxkZZh7dq+gvnkiQJly9fptlssrW1xd7eHhsbG+X87DThGqgOFqpCVkRYWlo6NGgJ5dG63S5ZlrGyskKe5zQajXJAGEzoGxsbrKyskGUZm5ubpWbdaDRKz9Pt7e1DwmqUK1eu8OTJk7Lzr7aFMKdbJdzTMEgIQi+YUx88eIiqHllP9NKlS6V5Pmj3gbW1tSFv4+BJHEzFjUYDY8yQ0xj4d2qcpljl8uXL9Lo91Dm0Yl1QVVZXVryTWKXLWlxcxOV+kB4G6mE++NKlS/T7fa5du3akgN3c3KTb7dLtdlHVoZKZV65cGRrshUFoqG/qPb8v0mz49nDz5k0OWgcsLy3RXFjg3KqAnxGOc/dLjbV4Zy2FZaeyr6NquUwTqJM2DetNO1dZ/y+/rKree3isHUp90fZ3//X/RYqPGpJKKTg3QYObNlc1bflJGTUrVU11sxxzlnWqnXt19Fw99lGC87jHHd13EJDBLFtdb3T9qnY/ehxVCGmuq0tGw2qm3cNgIg6WgdH7P+la500iMAj9mBQSIofeyeOGKY2e96i586jtx21bXX5a7391AFg93qT78tTQSv9RvTYdhOQcrjc8PsH6ce9N9X6PXuv8/U2MpgXO9DYcx2BvwJ/rwz3uf/IxjcvrrFzahNA34982i/j0nyiv/N6vsXOwXx7JiRva4+/8zu/wr/74X5J3uoym7x8VwtP6+wRjQRWDos43iEGlAd9w8nT4cqu7M9aOTQ4w6eWe/WWf7+nOcg7Fl3MfNWgm467tJIJj2nbVfVfXG1ccedy+x32uxoSNblUdOBxFcEAbd/yjrmkeqgOMqvCbRwAe99xm2X7W8zgNQXucAe8hRi/tWKc3waVEikH5uH2pEHSNcg7thPdklvYwG58dAXsyfVxPyQPp6d9fdY7Od37ET/7NX3D1jVfRX3qd1ddfgcYiIubYpSjU+dqzRsVrwVoE/lR2Mkt/kCwuLJUOIc65MuvTYC9Qrw3mZCeqzXML00nMJ2SHJr9PSVsIL8jY2xtMFPMI2hmOq9P+Hlk2K4bh/YQtj9LIZl12GhxXI5t2fk+7D5kUBDDLuXyqOO6NmTRXPM2ls5gkO8ktOTf38wyoqkfHfZwCPtrk6Z3O8Y9/LBz79R4v9HvU/vyvePStb8F/+89Z/fp/hNSXZn7JyrVUy5Azb4qmNEerDtJUDBYNO9mF9ZJ6vUaeuzK8QfPqHBcYTJmY4rBR8Wjm78BGs0yd9vGq+3ieGq0e+uSHN5+9VJmT3o3TnHk7V3dwmjCckbHm31mOO+ehz9X9PWOOe69k5Pez5rjvktiEi//pLyOtNq1/8xc0P3jAw//xf2P50iXsz38RSRcZSMvJ+56yysByhtdoy+k5GW9FBUjuf3KPPPO18qwdhCU45ws/GwxdrdH3s7bFfGxojcHUY6Z2YPM/pPlafPVmzddwn5emO82AolOf3Xm7R7OYip62sK2OdM8NJzjhicoq05UIZbbnM3Hfc2z3vFBOk59kB6fBkSc0Yb6+XDr4l8p3ah3L/+w/xkiL/f/9myzduUv/f/0G9vdTzM+9Tlaz5JKj6iNpjjylQnsVL0VLDTYcejSapdxX5YVP6OeYMAebO3KGpXCu0KXFuw8/InVgMThJsC5HJceJklHDTblr8z3gcA7Hi1ervlDzZx99XrK8TO7atPhvMuera5t0ttW37DQ12mfL5G51qslf5xV1Rxxz4hLPSe/9fAO++a/1PFm6RLzGdbIe7RTmT4/o10Wm9U3j50KdQA44EZZ+4Qt07+6z1Npj7zs/QNIa+s+UrRsbbDcgEyV3+cRjUBxDnTcZl4fTYeVtVFCPIzFFTJvI4GVVguMThQ1a+fYPv0utLxgVwHJht4vNW3QXa7SSBNWnLZhCXdvjB4UHV+259eCjfL0/KwjMc3/PI1M7efE/z4WQRSarlcUc1FxHlPmF7MlE+7xtdX7RrqU17/ww79kq4gcVz/hyzZzPxwn0LNTyPqvXU659+RUu/u330b99k/7De3z8pVd5/8UNthcSnJu+f9UgYAdC1hQasPoVhqbYqgxpssZayjqylYW5c+CcFzjWkBnBWEvNORa6fV597zHJnbvkV1d40HA4BgUFnh7zGTq0GL3NJSv1FB2mph/2TJjiOvXc4ATy03jkUv7zzJExL78S5Os0ITvnAc3k/Yb5q0m4E5mo5z3hk7z3lvMmZOe5WpWnMk0/ft9HrjE9Dn0SAmTGv2+iwl4zwa6kLB9kmJ9+zMVun4PuLbqvXWNgTD/6bMp4/Oo8bEW9HR2bBhkiIiRZ1i+C1qvjycELJEAu6fB3eY/ljx/hvv82+bt1rvTbiLryoVS1o3mzZCCmMBkc3+h7VKOehqrjqSvlMzDfK3Uy/Is4x3YnOugUTeo0maKlBU32aSNzDhIptzrJtoc5OmZUw//zHXTCfo96x05iOFJ1cwraYO46/jMS0TN5hedhaL77mOccMh6dipA9ymIiE8K+jiCcsymEbGYMKwo1NWgvh/fvs3qwx/7FZXTG1JkVUVrcyzAhO1jh0NUU+1YjJHmWjWkcgw5JlcIuHV5GH9tWcz361tHJesjaKrmBvgkCriKQ53xCgzZ7zFCNymdzzGOXSRkOBc2fIhr+OZuZnrlGuKoYnUOLCKqUnIVt9nCCiSqndUrzWgpEZW5T6FEDhqNm2o/bbk7Kid77uUzcoZPU+YQsbm6z+rNHB+/Dsx5QnwCVyc60kwjKldHwDivYHFoZDvUl6wxI5mjnoWjJESbjYvYwlLpTdEheBnknVDTcsKAgMcYO4oCGJHPFDi0WUes9ixWsghqHVeXJ+hLtX/l5eklC3/pJZ+sG+U3n1mSPvv5TQ87A8SmYuJ/xUZnnJouCdcfXIIohDHB0/drPAlre3/nu8bzvwzzzy+UQ+gTHPRN0nnlZB+Qg4zWZIy//HLkxhGxbEK7reA/XntG7ME//YBWMK95fAZUMqwdc+Ml91j/YQZywt5zy+J7jDy4AACAASURBVIs3aK9vYmT2MNHwhh3KB6EcGomMWqESxKdUNCPpAdUVHmDl3KaWqrh14iv3ONhbafDxK58jS1J6xjdwW9FkZ/G+mnRRZxen+WyPq4Ceo57tROZ4CTr7GVzvs36fgtPEMTcTfIIQmdPhZK4BTEUwzz3DM+d2z57BFY4956km87OwwpwdZ+GfAkwcAE1FBWcMSaY0MqXmMl74+F1aP/iQZYH+Uo17r1/jyS+9TtZIkWJuXVSPzms85j6ME7DjSBDBSGjQ4QXSgbegeIenHCUXLWZIhdwaUoUstTgVcrE48aaJMlWaDHynjoswOYHM6fNsW9E5kq9AYTo5wbORM9BilTmFz5yUTWmu++Q3mk8HnveYlfm7OefCzuI1nn8+159tyHlbeqNMmVsuD2jOkSrL0e/99LCup302szHPc81NQt9YxDlsnnHx3hY3/v4u6cMee6sLfPLz13n4tVd5tNwo+qBqzoejKVPbIoRMUHC0r0OyuLLsx8wK6vIy+b2f6vAjcZskOAO500LYQm4hL6yqtUzp1/3pVtMcO3xVn+clImZenrf7cxbXOwhHe0bHg+nhMlMIAkvVPTv1sHJr5rEzKGfQIZ/IIDIwMuvI91Nv+hx+ImfPLDdpwjWflSKrx+snRMGqo9mDFx7vU7//hBvf/0cOnuyQvbDJx6/e4N5/8BLtZo1cB4PYWVHwrsWVLWcdtCedrIdVgxXxP5VakM4pvV6XfpYV+/ZjXQWcEZwZtj6Hud2nqTGcNy1vXubXeiKzMORz8EyPO6cZh2LkPNdR5zMXj9bPnGcfz5JBNMPJGJllOzeew7Nykmm3s+x+j3Ns77CX8+qDfd74wU/p/eQD7ndb/N2LK+ivf4VsfZ3MGJyAcY4Mnd0krRVnzxGLjUhl7C7V7ytzsv1+Rub8LJmlMB1XKpokSUo9qRUN0I/yRASxfjSXjLkT1RHISUIjRE8ntGKW4z5rnjdt9plzBlJWOCMrjs6n4p2N892njcMxj88zZ3UrjttsVECc45V/+Pf0f/Ih9/st/vFanY/feImLa2s+S6EC6qbsfcwkayFgC2eSMdawgZSddK+Ser0GrqhL6gordSUfYzCeWDdwi1YBk6YokOaHD+yelpCdf9MTEQVe5Gmgcwedzs8Jp8vLd/88CNu5E86MYR7ntOeBM3M9PeYDCY6y9x7vYFT50bVlPvzSTS68dBtDilUhx+fqcqV9SRjO/HVYyIbshyHL46H7oYPQy0kl8BLnFHGKOoc69UkRRErPKVHIJS8PEBxI1BrvFJUf9p6s/v2sY+4ikfPOSZrMGMvVfPt5XqRIRUk5Chn5/TxwZt33HE7cCnz4T16kfWmJH99YZPOVl7DiMxq6aR7ER8yTBB+lcVnUJlFdMwl/GAQxFQNz6UVVCMoRlbg8L+eGS/wwfHPsUxxtRiLPE+dxfPqsNeCT9i2l5j7DusLT1Z7PA2dpLj7ubXYi3P0nF+DnN7mOxUmChupxT2v0OQdJv9X2WqpTr8E6LT0bvfRWbN36xMhC+bucvymqFIxDOJ8v5HkwlUWOz3l5F2eNv5tpPzPy1Myu5+QeB+aZ+3ueOF+XKzhJaDjo2gQTTLlyts8tyQ86gK8bKyLBuE2Igw9B8eW8L8MnbCbL2JKTJC6IAi/ytDgv79JxtKtZ9vNZ5XnTKs+Cc3d7NaEb0t3L8FSmkxNGfc1JYrIiq5MpNFlTxPYFD+Pg2q+gxlcrCckIQo7IcOITfbZO8KTOohGdl844MjvPY2f8WXfmOSsnrefxXXrWnGQAdWSp02csaRPNnU99WJyZE/GplsQgxgtal+dlTJr3x/LLFfXm5KABq471Jj6JJnsWxEYUOa/ohM+zEl/96Zwn7+unwXnpC4c8eyecc/m1jvw9gVH/ommPfNq+EpskiIAxUuapLE3CCmoENcMh9UKCSxIcDnUZpnCQcgwL2aDdnpcHFYmcd6qD9Hma3VOaDn6mnEkGsfN2k84h8wxkyucyRpCWy8p1tJRPPn9xSP5SyMFQE1blaM1ah1vOkHdxbbFZCkYnYEwxN2ukaHCGWtIoPIh9IQHE4BKLoIjmGMQnuHfj4ozOX6ONRM4zsb1FzjsnHcQEmTYuAaYoYIRcHFpkffIFWkxRvMRPl6oxiINQdLKaxuJQ2KoMf1sdICRaSwAly/IiWNfvyogvgWeM9TGxVM3FoNbX1hPnsOJjiZwctqVHIRuJHJfYaiKR4xIE28kE9EDddeKnT2WMzVhHpLePoa2UFZTBnhJS61VldeBCDmRF8xwjBsEhiddqTUjUaECtQUQLbXaMKh6JROagOhMUG1Mk8mliVgFeHSYn/dzPqaZpUWi98DA2UpiNMb5oQHW+FiG34s3E6iplomKnEImcjKph6iwCDiKRyFFUFcuj5o6TWrOBdZCmKdYUxmIB5wrtVg2pTbwArarjhWk4ZIMK3UHsEiKROVADWvP5jqWHSDWnaiQS+bQRBG1IHjMuvbAASb3RhH6OtabwEnb0+zl53vf5Hp2QJObQxq4ixU2QrhJH3pHIrFTcJCBfIe9cpJ85kvoOaX0fpEuZmTysF4lETp1gRzpyvRFBW6UUsrUkxanB9XtkeU6W+8LtzuVFTVkh02R4YxkIWevA5Fomr3iatWQjkc8qSnCTEDRf4ODJZbY/vkGnozSWHrN57QkLq48xpu3Xj/I1Ejk1tPLbMBjbSuW7qdtPzMQEycO7n/j5V2MQ1UrB4lAQwKBuWHA6AWf80iRXbN9hVMijfI1EZkJFUTFotsDB1hXu/HSNe3cg61uSWoNrOyu8+FrO8prDmD4+Cj02sEjkNCjzQgiIG2ihZU3zI5qeVy4Pr6QKSZr76SBjBLEWY0BMcGISRBKaafPQCQVnZaP+pKKfRiRyHCzkC7S2L3H33XUefLRIltVAcrLeCvfu1BGUm69mrKzvg+0QG1ck8mwYzZufn8CSlPSzzBdh1wQvYcEkghHx2q0RspHGHbJiCKbMXRzyG0cikRnIG17A/vQi9z6skWWKMTlOwSYZzlk++WAddY6brynLGznYLhBnZiOR80SS1GpFrmIpMz4ZY6DQbsc1aS9YDZaiBJ4LpqxB+sUobyORSRjau2vcfecSn3xQJ3P7rG5aXLbB7nbG8oU90iRn58Eqn3x4kRzl5hd6rGz0EQlBdJFI5DyQ1JIEjOBEcAwKtbtcyfIcFPq5HdpI1DdzYy3GQZZloMMzRtFyHImM4geiLqvz+ONV7r+/SNbfZe3Kx7xwe52dRxvs72asb3bZvNri43rGg7sb3L17Gbt4wK1mi+ZCcJnyiWAikcinm6Tf6/m668XQWFW9ZlvkdxRAa/nQRgL0rCFLLUYV57JDtfuikI1ERtAavdYS2w9WeXg3AXuXi1cecf2lFusXVtnfwqczdRlrG3vUajukjQMe3l/hySdNUrPOlRdaLK91EOs4spBzJPKccnz5c3q2oSTLcgTInSuqyEsRWOuLASiQSza0kQp0EqFnIc0A7aPiELWDcNnqacdUrJEILmvy+O5l3n9rg27+EZdvv8PnXkpYWKrjsh5ichAlzyyaZaxvbrO09oj1+zXuvHWDD9+6Rr97h5e+uM/iUmxQkcgkjt06TjFGLjHWFman4TJ1JpT5ETkUJBRy0RgxGFWEHCXHqCEzg5nZcn5WooyNRLK8z+7eNq1OxuaNba6/KCwu1wFQuqi0UCzOpagmgCNJlSvXe+TdLT5026h9gMsdaONsLyYS+ZQxKic/LTInUfVF28VQVPipCFe8VmrN4dNVgUShIxQxPDBwyBhe/9NysZHIWWLTNmuXu+S6xYUrwsrqAqWvvjhEcoQEX3IrdBqCCFy61iKpdag1c5aWG8TJmEjkfJCoKiIyEKZF5qbwA/gCARVUBnFEoloUvHUxhCcSmYI1wuXrlsvXLOAqo0/BoFgj3qNfLVXzkQD1RsaV6ymILfIaRyKR80ASBKmqL7qu4ONjKxqtUx3rZCHiDcNJHrJDRSKRiQhABtL3f4Q0M0GgiiBicL6A5Mi2DsHEYPRI5JyRqCpem9VSSjrNqeRXJJM+qjrkv+QdnLwXctLz3scxv2okMo2R6s+lwHTFlEvh5u8szo02JgXJiUQi54tEc1cIx4EQFXzMLHhBOm7sXIb64E3GkUhkXhQxWeFdLDhnUHdUSvJIJHIeSMJ8q4ob0lSl4gRl5LCKGuZlS2TW4kCRSOQQkiOm7+P78hQXhWwkcs4YL/8Sa63XVivOFD7ffzHPqorI4QbvBDIbMlj4WaVcBn9HIpHjkBdzteByi8tNkX8tNqZI5HwwRsgKJC7PESO4ikOFjobyjNk2N6HcHUielyEH0S8jEpkDcYTaVs5RaLIxb1okcp5REZIszxEnqCn8GcUvqArZ0Xqy4DVZFQFVpJ9hHWQ2GowjkfkYOEJ5Z/4oXCORzwKGwrHJqeJQqhF4ZbysGTM/JIJagzhFun1sbvw8bRx5RyJz4BDJEFEmRMxFIpFzSGJssPkOvqwmovCMiZEFSA1WFZtnGLVFJR6HYA+tH4lEpiAZxmYY60PqoiYbiZwfZIxzcCAZTaNY/TxI9D+SJlFBVUAMokpQdH0oT+wcIpF5SBJLkiQ418O5mNUpEjkvTJsmTWr1OoIWpt7BXJCqK0xXQqnt6sARQ0VQMT43TSFb43xsJDIfCr4+szX0ei4K2UjkDAiOu6JKCEqdRa5N1WSdK5K4GeNV1+IgqopzoDiyosFLmbAY1BhyY8A4TCGYo2dxJHJ8gme+TQzGGpxTNDeI2krxjYGNKA5mI5HTIcgyU2Zm0iIFxPRWJ0x2Vkza3U6xlpQJKMq42GLnOlLrTslxxpBZn9g8nJgCRerzSCQyI2GSxVpIEkGdwWU1cCliMjSOXiORZ4KKegGLVyhVilj1o0a2Wv4zhABJWq+VBQFM8TukUvQOGFBL0+IEwrH8wf1krELuynzn4ohD7UjkGIRQdGPBJt5UnLsip3hIqyaHSgZEIpFTJmixqtMjZ4ISO66NJmmSIsZgpJh7LVbOnStNxlTjZIuDOhHU+PXzfjYI86vmZoxEIjMgGITEgDGKag4a7UGRyKcFVcVN8PovHYX9H4eWJ/39lt/YKaoO53zifyk3tth6pcGHQiGAMRYDmNxhyoM87cuLRD7b+PocggEsiqhD1cW2FImcA1QVcyjsdUCStToDhwoxWCMI1cLtBmsGca++MIDBCdhaDaNCkoNxFbN07BwikdlRMIU2WyRRK+1PsXxkJPIpIPj8ThCkk75XILFJUhQI8HOyiBe2QVAqplSBJWixquQCNGqoKWJlNWqykchJMKK+eqQaVC2MKcwRiUSePZNy+B/pkiiQ2EYNEMQMp5wIqRbDULparF19xXa0keLEoP2s8MiKRCLzUYQKYHyiFx9YB8RxayRy5kySb1p4IJeNdCRxk4HEZbn/Y4xNORRwD1qqG4TRepNxLfV/9/NSyEZZG4kch+At6MpAc6egWng5xPCdSOTM0QlhPIKAqRSkrCqrhbxM+q1OGbpjjAFrMMjQXFAQxKFQexCoEqqF5A4jBlGHi8PuSOSYaBEe4J0PVRWcQbQIkYtEImdKqYCONMdqWI+TIrVw6W3sfyf9bg9jijlZa7DW+lLRIZ+UGoxaP6AWv6Mgqkt56rScr41EIidEAQ1CNtaUjUTOkmqeiXEhPFpJxuRjar23cfg+qdfrOA0xsUrf9Qc7KoRsogPvYtHSuIWrWayCZrlftVCP4/xsJHJ8BtnbBvOxw94QkUjkmRFmclTLj0duUuQ8HkTsCIlJLQbrszs5LZydQuCtAwym4uUYsj6pgGukXuj2M+8NJabYJhKJHBuf17T8M0bDRSJnR0hAAcPFcw6tx3BCitHKdkmo9hHmZIM4LYWsGpLEDu2xsGYh1oaVEVVi4rdIZH5KGStFKUmNITyRyNlQ1HUmyLajOSRgC3GYDErb6eEyHyH4thqvJwOTsRo/8SuVtItRzEYic6AKkiOmcDJ0gjopnCeiqTgSeZaoDqJr4Ai5FiJzpCJkzWCLxBrLQCEO2xRJKQAxSVkgALyANVrMyRoZ9jZ+ChcXiTy/OEScD5dzgnPiK1zFMJ5I5JkQ/HpNkfXQFOal0UnQcS1yYlrFJEl8AEG1BkAR92OMIGox1g5tZBCcQF54G1cdnYzGcXckMjuVhikOyABQZ9CqK38kEjl1BD+mtYrPRwyFN+/welUZ5zMmTm6pSbA2l/XaC7OxAi4HNCfP8+ETKY4QYmJHhWwe+4VIZEbG+y2qkyLzUyQSOUtkKKPTDA6JIwuTLPMjZ8dABRVjyp2DwY0pw+5kEBcbYmRjqbtI5LhUE0644scLWKeOaBeKRM6W0RZ4qEXKsKl41GycDASllKmjfBjOIJg2z0eE7IgrswAZvkhAHHxHIsdA/UDWk6PSRzUpzMUOJKfMDBPnZiORZ06QaWNbXyFgtfL3KIkRM3B8GpHGQZOtlro7dDBVxDkylyNqYlrFSGReJMfPyVpyp4Um62PVo3koEnl2qAxba+FoDfbQ3wWJtbbc2Gd9GmitPk5WjkgwUeR/Uheico93NZHIc40OfksGJi/mXyzqUsBE+RqJPBNCZic55Fc0ScDqyN/jSEazWBgTTFd+ctVbjg9vLMU6UiRF9l5YJuYwjkSOg4DXVkOy0hzIfRUeTVC1iOTEudlI5HTRIumEKb2Ai+8pZFrV32hGAQuQZLlvwIWPcREbVHw2grEWa0Yzz2iRCBlEHUbVx/NhihOJHUIkMhtV72IpwngUwSCkCAYveCORyJlQaq06rL1Wlk0j8TXvpMhZ7MpMF6pazMs6UkmHhLjq8IdBKnPFxQw1kcgxqAhZyRFx3vnQUeZNjfbiSORscFJVXo8vYAGSkBLKUuxsEDAL+ByqxpjSuXE4PN6Pt4VqrKyBMSE/kUhkHGW2cCAHyRAgzyDPFFWJbg6RyCmjI5/HqYrzCFiARIw5HJJjfM5UMb6mZVobpFU0FDtXnxEqSFwXq+9EIsdHq8PWwvkJyHOD5qYwF0cikVNFKmJweEr2sAZLJUdxsWCaH1IigFYyWoQDqSpaZHrq5/mgTqwvNTB0IOBQVqhIJDIrPj9qsCINj3nj1Eskcuoc4bB7SMiW+fqFo2r0JMaYUlgqvqasFA1eyyo8FQPxqNcV+PqzuYvdQSRyXMRL1VDtA1GkyL42oXxlJBJ52kxwJfJC9PCq5WcZJG2aRFJdSSk02MLpSYu5WQ1zrGXmC0XFFwnQ4kScy72aLcQwnkhkZrTwKPZTLwaHiE9EUY1Zj0Qip8g4AVv4K5V1OnTw/WCzo0fCiQsCtXBPBuOTUnhRCk5Rlxc7LyL6VAGLK+aLJEhXQI1EC1ckMjPeHuQjzb2A9YNWV/g5xNFqJHLqCJgyGLbq8e9z+WvluyEnKT383SiJVqS0hp2KVMxXQi2xmErWRRWDiiFXA2KKGrNCjnd5TlzUZCOR2akWCAAwZFlOluVEIRuJnD6ivoRrKWCLaRzKqdOBADyuDpmYkKM4zM1Wdhb2WGaBGpSLx4kWmqzEou2RyIkJ0zJ+AqafObIsJHiJxQEikTPhKcTPJaOewlJxhAIq+YjLCdji60GjNwri1Ivc2BdEIsdEyn/9wFlRNagL0esxwUskcl5JSjW44iEVnJ/KUndiC8E7yPCkYc62KHEnqj5ZRewLIpFjMFzqQ4wioUCAJoUWe4anF4lETkRSFaajv6HwHDZFDGwwFxd531QVp+oFrPOhBxKTUkQix6QiZEVLTZaYiCISOfck4wxRg1qy/nMoEDCoOjDwJHZGSdAiJFfH7C0SiRxN0aY0zM3aioYb21Qk8qlmWhWeUqCqwpgUi1Bp4hqiYkHE4KzgxGuvpojpOxy6G4lEplNW3EDE+UIb6vMWRyKRs2dcasXR5ZMoHZ9CoYCQyzhkchq7A1UMgkuM94VyDptlqGh0hIxEjkWlsYjDJmATyHsO53TgdxiJRM4OkbldI4zf3lfakUocULW8zyghgaJKUQrIKbiiDmYUsJHI8ZCQ9cmR1pQk9WXu1AV/idioIpHzSjIusb9UpLYYM5ybsRJG6yryVyq1ZWOXEIkch0EyCmsVmwAqqFrQ6PwUiZxnkvBBR0J4AkYVJxWPYQHr60rjZFBHNs0LAVtVgyORyAwMGoyxijE+hAdNiR7Gkcj5JjHFhG7pTQzDVXeQQcYnvGXLFoLUieAMkAuNfBDdE4lEZmU4ThbJEFOkU1RLzE8aiZxvkqoAneRhMX5eFvrG0E4Ny7kMJ6KI/UIkcgwGWZ1EXNGQBFUpCgdEIpHTZFwrG5drbZ7W6M3FxRysAjqmvJba4VlWxeBE6YvQswZQpNguDrwjkWMiRd1KBTE+km5A9HCIRE6b0gep6uyvh9eZ5Ng7tQpP6ZosghFBi7/DzhTFyOi8kE/1VpbDQ7C9PkZjLvNIZDaqiSYGoXLWCsYWSxzD3oWRSOTsmBDGo6pTm2ninBtor4WghYqQVcWZYe1W8ekVNcTTIphuHxM7hEhkBioFN8Kf+Io7ZYEOFVBTmIujz34kctb4FMTH3y5R51CnuCIXsYS6spW9pSYZ2kiL/kFNmDdSksyRRCEbiczAUCR6+UspLEEyWKvyTyQS+bQyTZOVIqWMxeDQYd+n4g8z4vik+NAdVzEN27xPZhRl/swYkchzw0isW6hqFapKBld9Dd7HcQ4mEvnUMjWtYr/fpzovK0Ul+LKYOwyF8IT2bnJHjpYmY+336VuN3pCRyNw4X4XH52ErklHE9hSJfBqY1BKnCVgo4mSLNQfVd6qfATEjmmyYjy2WO1Fs5kic0rUnuo5I5DljkCnNZ1Mr6skigPFtLMrZSORM8UVxJltpJwlaVSWxhSujmEKoBoGqofKADk0JiQ5yFiPFvCxg1GE16rGRyEkwxZysIjgtfB5C457H6yISiZyYoHTOHScr4pNJ+OxPRZEA0UMC1n8P4WsVUDE+taLT6AMZiZwIPycrRdysy5U8H5TBi0QiZ4MWDoiTxOxElwktvIspUis65wrTsNdog5BVdUM7UwHnfGxQWYUnd1A4Q9nYH0Qix6AIDagkoxAYCNnYniKRMyXkg9AJ1qTJQtaRuCwrhawABLNx5lMnOnUko8koytzFfj4WdeT9/tO6nkjkOcRLWC9k/aDWOYPmcQImEvk0ME+crKqSaK5gwpys8b/xWqwXrWZIRVYoY/r6FvpWMTiSXhfrDCYajSORYyBDYbMiitgcFUeWWfLcFstjeatI5DySqAZh6jVYI2YofZQFUltJRlH0CbkEIevbf7PXI1GLVQMcrlEbiUSOovAsLgq4qxrv/EQUr5HIecUYYzDitdWQs9irxZXQgioVJdUxGGSb3E8Km9gdRCJHIyFnsQ43MsFX4kGL3MUGxETbUCTyjHlabS4RAacK6hNJqAltXooUiyNhOeLz0PgPvgOArKzCE3uDSGRGhrwlwqDWlbGyLnPkGUUGmDM5w0jkuSG0wLKpSWnjLR1+x4m3sU2znLwVkizPyyM44zDqMEWScq/lDooGaJnI3BUDcEHFgjhEc1yIq41EInPgEMkxJvdC1ikuV0RlUqnnSCTylPAZhmUgwQoLkmilFOyY7WRMfvGBg5SQiFdl/d9OcS5DjfGuT2IxBrIiYcVANisGi4pFrcEBkjtvLnaOfLQyXiQSmQ1xGKMYY3AuxxuIymTGkUjkWTEysp3m0js2tKf4KglJJIo1vYbqclSVnJxMFUNVagqmyAaFWCRkjHJ+W6PR7SkSmRcBjEkQMRXfiPATBW0kclYEk/G05VWC4PXJKAoZHZyekOGg21kNwNFUHImcBK+x+qxPQuEqQRSukcj5oio/kyRJvIgtvlQdpI5SVUSExE7O+i/WliXvjJteIT4SiUyiWl82A8lQJ6iz+EC62LAikfPAqOk4KcvYVUJ2pKz84WNnbZqO35sINGo+laJTTK7k0UMjEpmTYnBLBmRFqkVhvrTkkUjkWTNubjYJ2qqvMFA08qKeZfn9mKLtIbhHGvXyO29qjl5Pkci8DOZg50vjVt3PQauFEaHZbB5Z8zISiZyMSXmNE18IYFBTFgaTuyFGdtQE7GtcqvcqbjRwRX1Z8Rkao+NTJDIXGuZdEHGos6iauQq3qypZP8OKYb+7i7WWpeWlcJRYCz4SeSocPQo2TsAZxRklF0cuRXUdA2rF/x5tkJUvTK2BM4KKQmEyjtatSGReMmzSwyQ5kIKrj6aDmQkRYWVlmc3VNT744Y/54be/S2t7F+Ni84xE5uJQThgdyo44SliWpGk6LIuLuVjMwHycJsmYXfidGGvQUMVH1deWjUQicyHisEmGtY5MDaoWOP4UTJjmqacpn9z5Gf/uzTfBCl/6p1+lubJMTM0WiRyPMlFFxUl4dPm4741FSBAS9XVgJVdM7pB+Dv0M7fXJ+9nEA1uTlBmhIpHISRGM+KpYqtPD4mYRk04VtcJHP/uQv/2b/5v33/9gxi0jkcgQWhWgk7XX0d9J/6Dj8xYXDheDhYONpO/G7Q8QrE1QTYrUU87Xl41EInMggEHxGqxi/cxMpU0VGcZJijabSVKMoCe0O1WuXrvGCy/eYm19g3q9VsbCj6xINCRHIpPx7QaG5WTFObEiM6u/k7zXG6RVrBBUX4GpJmARQy4pRh1WM3KJMX2RyLz4zOA5GtwHx5iLrTpWdg/QVpfd5RXyxYXD6WYK6vU6X3z9dTDCXqdNo/A0HjF0MWizcZAciYznsJZ6aI1xmqwxZmwDlcq/1sw2JxSbZyRyUnw9WTF5kcfNei/EogkalLV2zvWf3Kf3swfIF2+x90qT/pRx7draGl/5yld4+9+/R7/XH1kqhSNj6gt+kINkxNYciQyjqoNQ1ep3R2myag0DCT1S2lJ8dVhJJmd8GrfzSCQyP8FpSVVR54bKTYrCeivn2geP2X/nZ3Qub9B5+Sr9sQNhYXf/uw07NwAAIABJREFUgBQhbTb4whd/nlyVjOr0jwKGvG9QZ7FWkMQVheNje45EqpT2nur8bEXIlgIWHRQIkNSWklhG8hWHv5yZPEzWorydAOpifEAkMh+DtucdnxTncnLnDsm6xDkauaPvcoxmoA5hXGF3H46XFfOtCjgZ50qlOO3jXB8MWNUyyCASeV7QETdDrfwH5XQsfoyqhS8TA3cGr+aW66r6tpuItRPbUpDKYieYiwW0Et7jjxVbZiQyH77hilHE5EU9WYOOBKp796iB3wSqiKpPEsNwtRBXdhE6OQmFOJJapeKPz616CtcXiXx6cRXt0//tvwvKpy0Wu2IQqlp81sKtycf3DHZQLEvUmLI9jaZeC6E5yZjcxWEaV9OYRjESeTr4TGpJCjYRVAVVczi1YplbnMFIukJVkKpMEKzjdhnV10hkKkPO/kWCNlFvJxpybSoarVFI0jQZeBvKcHsNQteMzMlqETJgkLKerA7qckUikWMz8O5NEsEm/jt1Umiyk8N0dKTdzheME9tuJHIkY5pJELxS0WS10HZFISF3IIIYP+Q1NhQEEEwREG9HSt2p8U4ZBq/tloUFoBgOxwYbiZwEKRyPVA3qCnW0GCoPGnS5dmkqDhxf0MY42UjkKMY695aa7eisrifptzp+Qai4YwxiBGMsppiLzY9K6ybVj1HIRiInYZBcwhUmYylFoBewYZaVQQTOUyEK2khkEqOSbSBbg9Y6HJ4Tlieun3n/qcrWUuQtlsKrWLJJGZ+GdxaTPUUiJ0dEB/OjQZIWnwUwRXTNREemSCRycjQ0smLwGfwfylCd4Cg1EHxDMrBom4lzwwJUKELkUNT5L1w+uXidDxFwWIFEow4biZwc8YK2+FxtVEaLHOPq255WnKBOesxI5HnGIMM2W3XebbgUtoQAWe85DOBcGcoz2oKCwE2q2dS8h+FIuIBMDspR8TG0OZAAqYsj60jk5DhCVWanpsx6GlKchjSnKqHW89NtdFLZfyTyvGBHAlDFKeJ8fI7PAwEhz7+G0J5iGTq5lEeCMUVsnhRGqXExeZNam+Cs+NhcmbZeJBKZDcVYMIW66gfKRXxNcHiqBL2fyhnEZhyJDKpgFQJUgpm4iEsXHSyb5s2QiDE+Y4yYoWwVVD6Nei76JX4aWO1gmZvgXRWJRGZFSBKDTfyQV523SD2rY1dcquYpFV9uG4l8VtAiDlZHhOzQOgPn/0MkPnTHeDOxCzsNjUzLDBeHCAVqjSCSk+QC3RboYswWE4nMiZ+y0TI5hGowU51ym1JBkaHDiPpzQYcPb1WwucPmiskVzXNfN6hewyU+F/qsSTAikU87wQlRNS+sSRPi1Rk/ME2MtQQvKd+odeBtHITtFKHpk5nnpM6gvX1gc8KhIpHILIhIGX/unOKcDoWfh9QU8BRbWrkjb/wSBKuKcYp1IOqQLMf0cmoHXZo7e9QOWqStPmknZ09g+9XP0b62SW6PMqBFIucHQYr0iTo1gmaSNpuEvMSDVFEVzyn/BSY9ogoPhXCOGZ8ikRMixcjZtyWXHy737NO4hbyK1VxRw2JNCblhiqmdCUdUfI1aW3gup7kjyR2224edFnZ3j0ary/JBj0arR7rXorG9g221Mb0+SQb3G03am2u0r2/SL6aQTGVQEImcWyrZm45clcPveyJiilSohfn3UNFZh4yU0QqD6pDOzRVmLXIXZ2UikROjRcanIq1imX08/Pj2Kpgyw5ovEDBo5GV4LT7Ex2nwrZAycN5mXpimOTRaHZr7+6T7LdL9DvV2j7TVQbb3sVt71FtdljuONFNyUdo16Ncs2XIDt9jkYOMC/c0VcmNQHKNl4SOR80XwGg4hreMJJSlDwxunzSaauZEsFsF/32+lKC4fHpIaLSoUCOQGMuObddLJSHLoJUQikbkJBmHvXew0R3Dlt1JIUBVLbgTBa6EUIT3ihJWestbJafYybK9H3u+RdzNcu4tt90i7OSbPSTNHLVdsu4tp7dPuttjN+2yrYsTQrDVobK7Rr9XYSxNcYumklt2moVtP0GYNFhbIVpbpLi+i4gal8iKRc8JoDglXCE7JFaM6XIF5rMV2kCRidHHiXFVz1SEnp6DdhnWkGJ8aHWixuUBuvTRPOzlm1LYViUSOSeFZDOTOFXWaB1nZtFITNnXKWjcjdY40c9hujjnosfz4gPXHBywetKh127hul6zbIztoQauH5EonEdqpoZ2m7C42yNaXaV2+wtZSjZ1mSl6rUVtYIF1ahGYN6jVIEtzAR9IL/CGJ6qKAjZw7QnuSkNgp6JXFPGxpvZ0wJTrNlJxgCltviMMb5+R0hONTMGONZo+KRCLHRyitwKg73LBVFBVf7XJtp0vjHz+hvr3DYjun1s4w+y3c7j79Tpt9zQqLk9A1QqdeY/+FDQ5WmvSXmuTNBbqNBnvLDXR9Gbu8iKslWCvYIhFNXrZ/QUfG/CpRa408D8yvPCbq3NBk7SwNJgvVQAScLVz/Ae31iww0kUjk2BQxLyIgZjAZFIoE+IxPinWuiOtx2Ifb1O5uYR89puugBygZuw3h8WaTnZU1essL2EYD6nV6C032NxborjSxjSb1tIaxCWJk4F/BYG531JEqjOllJN1jlLSRzzLBsXce596iauX0MJ1RMlGf3g18XFwx9JZeRh4bWyRyQrzjkzEOMKBJmfwlcUrS7UPeo2fhSR2e1Ayqi2RLddxyk7yR0FpusreySGtxAV1skjYa1NIUSSzGGBpFO3XFT9BHS7NZeSaDuMCyaZceIad+IyKRTx3jxOy0ppCMeg6P7sqHARxlLi4mi/P5VepIJOJRFGMdYgrHp9yCGowqC31l4ckusrfHXl14dGOV3sVNWv8/e2/abDly3vn9nswEznK3WnutZnNpNskRRyONJFuacdjzwm9sfwN/M38GR9h+YTtkT3hmHOHwxFiiFpKiRDa7SfZaXV3rXc4CIPPxi8wEcM4959x7a+lmd+FfcetsQCKRAPKfz157wsEYDqdIOaYsRhTWcphDgQSCaCLTVULd1IOVJ34orzVgwLnImz52cWS0ya41knZr/zfrRQP6hmDptkWbc7mPBwz4WuMrUImKgLEBYwPBC8FbRC0jr1x7OGf6u3ssT084efs6p3duwZ03wFpMyh5uMAQxBKLGKVfVkjaj05pkun78IfxmwEuMjgdjzoh1Ur1qmKprJdGcJjE3uqOlHEaQq4CoWFBP2dRDLrUB3yyk27lNzM/lbvHvv/YWd27cBuDjh1/w3t2PLnGsHGyniAmISCRZjUW49uqG6x99hnz8Gfetcvqt2/jXbkHhEO1iYKO5VAkoQcH2FsLRdWlwVhowYBs6+2t8H3Q1zFVSvtN108o2RJKVuPptd5Ptrsqwqj0KAogBPKUPQyaKAd8YnM9RejkZ7w+/9Q53brzSfs6Ee1myjY+kpoW0QTWmOLz26IyDjz/Fn53w8I3rzF65jRmN8Ck1BXQ2VMlEKjE1xFAha8CAqyOWtOMck2aiJXng71QX54LsKiHmaFwTkVUh2NXQnH49y87GozG/6fAwD/hGoJddaUWCvfj+7hNsxqQct2T70w9/zYPT4x3H7Tx7QzDgDftV4JUPHzO5+5gHhfDorVepX7mNqD1nMs1zgsktJcl2WAAPGPD8ICm/+EWV54ykVbAGJXiPNh7feIIP6c9fHP/auiIOT/GAbwoizVlViqCUXimbgNPdZDUpRztbnZRj/vN3fswffuudrdu2mZ3yYtnDzYc11z9+DKdzTq/vM3/zNro/bVMlXvqUBgwY8NxwmdKuzlqb9M+hLavV9zdWkXO5i3NeVFGojcWbEaJnSPCYTbL1gAFfU5gA104qJp8+4HRxzPyNm/DKbRpje4baq9/vd268ws39ww0q5GRblSyBxgfZffEI+/l9Tiw8fvs1qtdvEawhDGUlBwz4UtDmKb4iXGg8fT42sbV2A9VV0o1Hi7ZYp0JtI8kaDOI9Ip4UfjtgwNceKjCqPDd+e4+jD95HXrvB4sfv8uCt2zycFpFsydbaqxFeX4XckW2kVZEQF6xqkcYgDx5wcvaED9+8zmfvvMni2n4vE9OAAQN+X+F801y4ke7IRxyl2uS5OCQGH/ANghLTET4+LHBvX+P253vc+uXn2Ec1X/zJd/ntu29yb2+PxjytPBuxbq99eFxjjEecghbsP1H2Hp5xbwQfvfMaizduwtb49g3noflsrpZ0ZsCAlwPa5uW/CE8jzbqYfBz6U0T8KL0P57uU/SgaI63xaNTsLmo7YMDXCiKowunY4b/3Co145K/e49bH97n9kwDBwLtvce9gRG3gWT2Lsr3244f3OXnwGDHRAXF09wn65JR7N/c5e/Um5WTaSbE7Hvg+ubbfMRhzBgxYhfYcmC5+OtaJVnOa0S1w0eW/a7sfN9uG95xbNackb5JJFghQ1APDDvhmIQbDGObjCV+88yZL37CsKt74/CE3//qXmBrcD+7w6fVItM/+BChv3rjJf/1n15n4kr/8twoPT3nU1Dx+91Xk9i2QZA++7MFk8PkfMOBCpOQPV9b2XLB5l1ZxpcRd9yYT7bY2Q3aDhLYs0IAB3xgkLU/AsBiNWX73TebLmvCT97lz7yGv/uSXjGql/sO3+PT6GHhWaTES4t645F/9yR4/+JZl+ddv8OAnE+avv0o53SOgXaHoHUeSS4YcDRgwIKKflOky2wE7pVgAJ9Z0GZzWYukuVXmgT8QDwQ74xiJVm9o74OQH3+FjVzD+u9/xykf3uf53/8TNieWzP34bUlTOs6pl8yN17dBw/b+8g/zr/57/8Pk/JftvW8312U5pwIABLxwu5yU2RjpCTemkssPTLscngOBiTlRRsMODP+CbDBH04IDTH32PTyZT1P6SW7/9nOk/vMfejQn67rfSgnM1eeHln4pIz23GJoRgDHtHh/zrO3/GJw/v8cvPP3zOJzVgwIAXhZVYG+k5Owmdcfe8TXYVwQiBqC52Q+7iAd90CFSjkgfffQM1Bi8w/ewRb/3Vr/hiMoF/HsBIzwRztWdC0GR6CZGvXYEvasYjw/def4s3br7Cxw/v8au7Hz/3UxswYMDzRUuyO8v37JwjehrpQV084CWBCsxLx8O3Xwc1vP3//oy3P/iE4mAf+2+W+GnZhdnoZZXHUXo1qljvMRoAQcsSLWsgpkCdlCO+/9q3uHPjFf5+Z4rGAQMGfNVo84YHVUII7Z/v/V2oLs7zxwXbDRjwTYIizEvHo2+/ytmPvs10VPDm7+4yfnSKOVtCTkcqcevLwgawdUCaWE49WEFtfsi6NIqTcsyfv/Nj/sWOFI0DBgz4ahHrySpI0JUSXsmsFHFB3Ls6GyuWhDDkLx7w0iCHsc1Ky/3vvMatx2dc++wR00UFj2EB+OmolzjiYolWAKlrikWDayZgIYgQRLY+hv0Ujb+6TEm9AQMGfGlwYkwq27O9moB1O1hWBFO6OH+EgPoA2BfS2QEDft8QiVb44uYB5l9+nzfvH/POpGS0rHGPTvF1oNkbU5U2PV3b7LQxnaJtPKPTOTpvcLKPJAcqvcDXYT1F468Hsh0w4PcCjpZkIWe+AOi/GLudNEUE46JpVxT0ooo9AwZ8wyDA0lk+vn3A7JUbvHHjgPLxKeVsiX10SuOV2cGEZdlP6H9eqjUoxaKiPFvgG4lpFbO4fElMyjHvvvYWb11YUm/AgAFfBoxBEI2ewSaACYpRja9BkfS3DYrSOCGYWGe2DJefEAYM+KYgc+GiMNTjEctrByz3xoQQKI7PmB7PGFUeu5LfW3t/UHgYLWqk9qi1sEuDdAEuU1JvwIABLx6uzdLUT+yUi1S3hdt3k2xlo/OTURgNJDvgJUYQ8AI6LoF9UBidzXEnZ0wV5HDCYmRTHdgOQqxXW1YBVSWMC0Lh0Cq5OTylq8P2knoDBgz4MhCr8GhUVW1dN1/Ra1hVh2ofA15CdJ6/QaAZF4SjKUE941mNO50xQeFwwnLkVkrVRSm2wdQNlTFU44LGWrSiL+w+Fdar/Awq5AEDvjyYpm7wdUNTVdRV3f3VNU3dxL+LyuFl+60mu6xenPtxwIBvOrwIzbhkeXTAYjqiCR57OmPyZEa5bHrFtZTSB4p5Rag91biknpSomFS4XXtO++uMe3kGnpTjQX08YMA59J/E5w8T8w4LGIP2/uJniX9bpFJREDGQHaNSKNAgxA54udGzuhrBT0qW1/ZZ7k8IKO5shjudQ+MBxQVwyxqWFd7EsJ9Qlm1Jyavoiy969CblmDs3XnnaExsw4BuIXOBG0mJWEDExiYQajLF0Wqqr/zlnLUGVHAwrvf8yWfa9i1M1oNUO2m7fQVU8YAB0FTMENRAmJUtrECOMTueYsxmmEMLehCKAmy3QusJPR21sbaoH0v6fCkxuDQK6LObV8tlObcCAbxhynvD8cAkGwYAKRiz+GTSzLhYEiA0E1h7c1O6FJlnTFQgYUisOGLAOIYiiI8f8aA+A4mzO5HhG7aHE4BYVDUo1KvCF6y1kn5VSz+PB6ZPn1taAAd8o5FqtPUnyWYVGt+JBrOA3sKT3fkcTfclVUR3iZAcMiOjXf4zJXvyoYHFtHxuU6ckc38wwImhTUxWGZWkJph9L+2zexX3MqwU//fDXgyQ7YMCXCKdB27mg841cDZXfxeOqsUqIqKCi2KYCJi+wywMGfJ2wTrTQlA6/P8UsPWa5BFW8UfyoJIyKmOEp70p6xp6xF+/d/WgI4Rkw4CuAa6eAbH9tXYV74vLOUneG4MqYllHA+PoFdXXAgK8r+kQbNVHVpGB0tEf5SNFqSbTdRifEPiV3SqKnU1k9OH3Cf/r1PzxL5wcMGPAMcLG4dAdJWSlyggpEMBfppI20ySx2ZYcaMODlRY9oFSprON0fMUIxTxRXVdhFg1QNlGWb5jSaYOTKomxWDQ8xsQMGPBueNRzV+RBWXCs0eRarZGFWdttkBeoyFq4WdqdgHDDg5UbPdwFYOEN1MGZPlfJxwNYeU/vk7d8zxKpcmmPn1WLI7jRgwHNE6PkZ7TSd9t/3iNmtpFOkpzpuQ/T0grSKUJeWxoDTgWQHDLgYnVSr1mDKEmsdEvzqQ5zq0MYqPBe3OthdBwx4/sgke6GX8ZoTcYazqYJO3iabfvrN7arCE8v0SLffkOlpwIBLoKc+TmaZnDGtR8Hx9wueqQenx4PX8IABLwiqykUZltajdPpwMeNT+j5la9I18XaXTVYA03OMGjh2wIDLIiWXkLxIjRWw1qvgtUmf1jCvlvz0w/dS3OuQAGbAgBeC5B9xEbVtIlgAl/0rFLr0iT0/i4tEZE0Zn3IVHvFDnOyAAZdHJFhNpSKjJLv2pGq3LWS76/1UmH143gYMeNG4SJjdRrAALjs6td7BLdHm7wTjtquLVZI6WQQTQOpdiSsGDBjQhxLzG2cCzUTbj6TrsrIp7939kF/d/QjUDDnCBwz4ErHTy3jHT06M6RFr+q/NQpEyOu6Mk83qYrm4IwMGDDgHJRbhiP80JYbJbBt//+z+nI8+/Adm1VncSYbnbMCALxVP+cjFONlstE1/sTBPjOER5MLkxZLSwEXHjeHhHzDgKlAhkSyYkPM9Rf+I41PP//K/Lyhvfcj3/qBGMOigIh4w4EtC5sGnFyAdoSPZNmJWYqkfMVldteOhlkiycYIAaQaSHTDgKggCQQSLYFQxQcEqP3v/C/7n/2nC7HTK92/GKAAVA4ShEMeAAS8YWdjc5pd0WdJ1kltTbVMqRuk1oCGusIO5wM6awg+sKmZwfBow4NJQEslawUnMmPbJb97nb04e8dGnNzHubVAL6litU/n8q/MMGDAgIhKrZNekjVlNBbkU0bocnpPL3KkqGkLrLaWqeON2NpKUyhgFBpIdMOBKCAJqDOHJCff+17/kk+/dQt54FWvAtD6HyeVfem6Og2lmwICvDskx+CI42zkuEkKAfmpEVdAAYTNx5kdcU0KK2oCrBu/iAQOuglldMf/HX7L/P/yPVAcF8sY+ELA2YIwnh+nE7GsMwuuAAb8vWItn3wTnqyZukCTY1qMY0BCicmrbijmnXiSGITQG7ECyAwZcGu/d/Zj3P/0tP3r/I35gDWbZIFWNSkBMwNiAEv0mLg6HHzBgwIuCyHb18K6Sz65pOpKVZJtd3VkvpZWK+umADrmLBwy4EA9Oj/np795nVi0QMYTCgbNQL6PJRcBYxdju8Y3Z2HRQEw8Y8BVhE9HGfP+d4nj99xVj63aW3vVQSyoyrRgCuyNqBwz4ZuOi/MHzasFPf/drHpye0HkzgDqDOsEsPKaJhQKMFcRob5Wc86MOGuN1XCK97IABT4HOuzj04tY3bNbfY+Wn3R5Nl+xEIIb/CIEQFs/e5IABX2O8d/cjvv/aWyvfrZSgU3LaiRZiDRQCvkGaBlQRUZCAEpLwuksp9fKiG5uBZQc8J/TCd4SuAE4Kmz0vkMoKy67AdbGxuw+4CwEhhOiN3FSzy5zCgAHfWHz88B4Ad27cTp831HftE4OAFBYKC95DE/0ajDGI6RPrQLDbcGEZsgEDroDV9MLSJkPcFMrTbrcFLsfIPsvj21YJUdnqiTxgwMuCebW8sLZrtK1Klx7RWbSw0Tei9uAVI2ZF9TRQ7GYM/DrgStiRzH8d/TjZFYK9wk3XJqMYcg4PGPDloVMXx3fBGYKzMalL08SkLlll1QuKJ5eiHJ7XhH5ijr7qeMCAzYie+ldfmclaCdjLorXJ7la3bP9NgcbEcndGA8YPN/iAAZdB/5lTcVgpGSmMguJy8Hpbu6P/gA+22XVkclUdipQMuACy8nLl/a6KjmSfoXFvQZxFaIZ6sgMGXBGCEMQhpqTEUPqACzEJReRhk/5YF9xeakSLdkesbaET7Uu2Ofxp0CkPiGiryl3xnnhmSfbpET2wTNvhYQYYMOBKUPBWaEqLMwZXe0zTIEVIvvsSq7q/9Ax7/vw1O4S0hU60J9X2tpWuZu+z4/mnBXmZFgGX0TS8qPFQVaw1T6fteFpJdtVbaksrK2qt7uvczWANQQSjcFEtgQEDXnoIQHa+iMRxVgrHE8M1o0xnNXtnDfZ6A6ZCqWNiRRXQgOjTWJS+/og+mnG8ou9KfBXV+OcDQXOFotWkHXpu0t4xyWbizlJwK8FER7VdyvrLXJfN+26Xkrpo6qe76k9bflQVVPSpHGMzSZ4jS901enmT1WKOKqt7xKRJYHoVcnIAl64FTEur74g+hg5wQaBY9dqPYTrS3jpBNYbOoXF9m7bZVMd59ZvzmSLcNpG53/k2feKmTQWCMakEF5ih1N2AAReiH9WpwKwQTsaGAwOjWcVk1uCue8QuUZrkrJGe8Zc0JHTd7pqn/tnxCcvjE/yyxgffSSlbp6I8hW/RvmWCTV6o/XhJ0DQZb5s3++2eO4Mu/3R/n27HDd/H/zoZ/ooXXmIJ0m392QVVCBJSNsALDrIGI6atSd4/VrhERkDVtFhK8D3eEo38aFR72tP+vmuaDgEvgliLEYPRKFk2YwPBp55FYta0zmlT96MEUcTEq61mU2rTixdv50h205qlTUq+4eZovzbRQ3kD0Q8YMGAdvdW5ECvxNM6i1iC1x9QNRmJCCm2l3jyJvKQs25M8+lXCHt/9nI9/8SvmpzMup8qNKvhOjFjdo5UcpffaT5vXznybuPGi67K9d4JsJNvVpq9oRxRiCdMNh704Za62/9aP28WRdiPZ76eRSGorJBFFza5jPRt6CIG6aaiqirqqCMGvbJobLoAjU3D9YLwiM65LtAAYoXGOe8dPWGhAxWAQxENTCr6p4z49S0IUJvtmhvzZoBK6YVw3j+r2XIdOZDXzTHviKzaNC25bATXpphtyFw8YcDlI96wFBJxDXExIYeoGRxenlyf8l/3parW4CmhAfaB6fMqjzz7n9Pjkkra8lKddzhMsgE1SWCbWc4W7V46xS6Ld+MtGybVVB2+12D2d042IYM7TYKtu34qsjie+rrSQiTW9rkvvIgJGEtF2qm4xJHLNfYgk733DcrnkbDZjdnZGXdeEkFL0JklcAIuwPyo4ODgg+En7TMSxMb0i6yAYMDEn+KNPPuGkqQnEbYwaqkIIt+lpd7v+K93liVnX0rdr2t2VcV4b8z5cVH106hXddDNdcOMqiWRFMCG8vAvtAQOujKRGE6AoKF2BrxukrrHEOWBF6/bSI0uxUfpR75GgWDEYA+hF0Q0Koj3SWreoCSbJqiaRS55aM7FE9eLuo1zOE7Wln53bdjTV8zC/JOJ5bNhFNpCsrv2u2ubrbX9sCTaNjWQC7sTOfL8a8UhWG9Mb82TnDap49WgIzGdnzE/PaOoa0YBDMWlzI4IoTK3w6sGU6/tjnERNhjGmJVZjol01Eq8Ba1jWFeo9JrUXpWzBWEM2G4jK+bHojX32mcuC5PpQmd62m+BWVBCbRH/oXJ63QAG1AgRMKo831L0cMOCyUIKAlAWFK1nMztC66iaYpO572aXYPrKKkaDdREgAyYv8bZNPsrGJaT/3EadD382D/RVOWwZ0s/p1rZGtprO+maBttxWPlPVZuHUi6r+/xNyafYDMik44OYvJ+Zl+nWiyqSKkxjqJXs+9tguGNFxiNKqpZc3+3ZNiQwj4uqGqauazU5q6iscBjESbq0k5vA2wPy44mo5wFiRJlnHbTuOjuU9pZfHk9CTeJ6bbJ70jtGO9/nz1bK+JE4N0+Yt1TXJXonS87Xo7Nas3zHnRPxqxdyEIqLOxy9kue8F9OGDAgA6KIkWBFAXBN2jTpAkmTYYpDvRllmg7f6RkKQwKQQneE3zo6ZHjgr9T261QViuZsvJK9zl7wOzqyw51YW4nOyp1/UjfZaLJ/JTKKq2k0FxpMN8HPXerS0yu7X2z4YdtktvG79fijs+r5KVH/v3f+szVs/8mKbapaxaLirOzM5pqESXTFeKMXCIoTuBgb4/C9eRGATF0r/mcUwN1CDw+PsE+nJ6jAAAgAElEQVTnKyFR0u1sMB0M4NP5ZZts6+wWVzcrRQLWG9BOz3AOrtM55wZ6on9+t/OGix0PSdpdcczo52YdMGDADggUMX+x9wG8j+ttozGE4WX2d2qxGvuaLdpBA6uJ8rQjhn44R89Zp/Mw1u6rnkYvz3ubhlvX+rF+nPWtu+m/k466/da2XJt/6X0KBKLrztVw8Qy83QFqV7DYxrHR89JtvyNKkmC9p6przmZnzOfzKG1ikg05VaAikaeCs4bpZNSzuXb5GbIXsxJJWkUIAsfzGYumTm5uJvW5k8YNQhtxKt1DJkpSLUtie4MYQYywbozoE2seq55PFwBOzPabo/OE323nUIjexaLdFyvLioFoBwzYBSHGmzfWoBpioQ0JeAlRU7TufPOSo008QUCsRJNWS4p6Tv0X9+n2X5e4hE5q6Vdgycku+sW61+M22zYv6Ov5457bckcrScrUzsP1ed0PFyVmaLWbsnrMi45/LpwmqYhDCPgQaJqGuq7QENba7R0bwRA4mE5xNlt/A2Bjm13jraSqIgSFhycn1GlITSbiNe2GJMVFPzOYpIaDFYIRjJWWcM/L8AkB1ORlX1JcJ/nVWWNXdgpJJ9OaNTaqB3oDR1ppW9OuLFc7YVCGDBUDBuyEgDcWb0xUm4WAqgfTgFUgfj/wLK3jU0z0FBATHVmMESSJ/f25qKM4aG1wvd97EsGqylZ7rawQxuUvwvrcuVndevHv+fso712urcvgwsxHoqBmhWDX7bmbiHfNDExIEmzwviVbaY+/SfKVVqkqSVXchgRBe8lUspm1UwWrMVSqnFVLvOjKAjWbMjcNWzxc7/qLoKZrN0vR68MDpBja3gmnBlU1plXsBiatBtLKLmfPuOgyBuKJxYN2N64m6/NLr+UaMOBCCD5JsgDGB4xvEBNSTdk4o6xPBC8Tsj02v4dEoKIk411SnkWizaMUkiqxL2d0MFE1uVVdeh67FMObOr2JaGM3tyijdcNvSdWK5CjfbQfc3OHNfWOrbXZl5w193WTvPmePTb8FFA0h/iV7bJcwpD8WG6RZASeGcelSaFVsV0QwxqyoixEhiCGIYbaYUafjYVb9f7ed8fpv2pJ3JvLz+7TOUJvaS7eVCxri6o9uwK+c11HiYkehcybbGJ01YMCATVDAG0NIIQkmBIz3GBO9YaP0lp/0wfyyaQyyvS2rdrOQJEmfFs7t+vxU8Fsl0PhjPNqlyXY30Ua9hvQkwe3I0u+2Pm04kZ5tuGfx67W3SYrdNo6qkWBDJryV77rsXZIccPs2aSGGUU1GI6zpJZfMUnVPBbxOtMdnM3wAbWsyP921Xs1adXWICC6sV82RXuOcf7+OnO4tmMj4zmt7ssCaQ8KAAQM2QREWhWFRWkYB9haecR2wqpgkhqlmuvBteMbLiHbC3uB8ZJKaUUmxx9BOstmglfWQHV2sS2C7IOk6nEemhvOU2e/iJlXweh/6e65JkFk6lKwx7WyIm6Brr/nD1rPMuaHpxi377exSY58neyGoEoKPkmtIeYCTjRugaZreYuK8Kja2Akd7+1hJMbkivT9WCDbmarAsas/JWUVQQ85okeN1ryJACkSHp0vs19cGr8OdW2Xlk960ktoATRcspJWICdreF9FQr5vvnwEDBiQIAWVRRKKdBBgvPEUVsBrnCQ3SZumJEtrLa4TZmP+3pyoWyZKeriRQbIN3ekH8maB6IgUXEm2a8zZJmvllF5lednEUt1+VkLU3P2cVuOmd27a+dvv37dCbd4hT9mYdaW/Udvc9KE2rIu5Jsen3EALLZZW8iuPiMWsd8jVQYOwce5MJVrKqtCPMbCdtjymWoIZHx09Y1E1aDEmvz+ndliQO5656j9Ahj8mW892klUjfuRW1QG67t9FliDYIeNPpu/v2j5d0Hhgw4EpQoBGhMRKdKHwT0yvmFXu2R6ZUgIOncVZ75k+ddNOm44Oo/mwXJHJerdubbzu5tmc+28G3uxyPtv92ucXR9ut7XpV8Wa3GLmmsS7+QNZHQp+5tauHVfnRSbc7GFQsCKJmf4vpA8D56F5Ol+KQCjgsIaU0jh3t7FDblHO5xlWnfQRssi6FWiaridvxXFwqGFOqD9tap8c3G0TFZJc3Oy7Zbkt1Asn1cxr1bRPA2H6S/c95oZxMDBgxAqI1h4WKMn6lqqOqYDk4BjRIBXE7D9DJBEKy1WGsx+DZ/epYoDZCT+ucEEK2GNs/TPXkgE4XkH+hxrWay6G2zDRuINmcX2rmfQDYo97frtMqrRJtDUFYIj94xlPbeaX9bc1Lqz/OZnDTZc/sZo1bZIA5mp05NTk1BW5W+9vMqpfE2QFXVnRTbkxhj+4YcMzvd28cam/aPi8yWcEVi9bf06nGcVhWLpml7F8/HgAbaZB7av/Sx3+fd4br9VbJ6fouZ4AKObCXZrYbwCxoxKVA3JJLNUVzDNDBgwNVQG2FhY3kxU9fYusFJrIGZJ66LbYYvDzrpCgrnaIoiZlZMuXHROMV3JBsn3OxHstpYfunazN/07Yh9Ce8yjp0rGsJL64m7N62ckh2CVHrkkLSH0pFqlO7Xzk9W20qbnJe+pFNRZ4E26U3aZrTdP76zvX1az+F8r670I+ZREJFYcaeu84mtkUWUSDXxinEjBJM87FOSirWTUzEEccwDnCwWhL6k3xMiWwqXnJqir3NdNSG06nIjXfGbLY/eRTZb19H11m12o/Xqip3LBvlhKhgw4CqI2WdqA8GAaTy2bjDjlPg8+CQdMKxg1yBicEVBOSrBSywIqjHdoteQCnDHibNfmLs/S60q3YSc1amThtJkrP3t+xSyqV/P70JtVD9raAkwSp2rasTQMeKavCa0gZVJE9nfN2g/jaP03Gqku/8UkHiMnF5/RYLVcL7PKV2lDx6farmueIQjkMpiqBgCUAVBnYDkMqo5oUQk4yAGL5Y6GE4WC7wqo/GYxWKRR2FlyNrruXb926wUrF5LJZFsdj56Crin220NKysWbVUvQwqKAQMuDyXGygZrMMsalhVmGr07vfcx3eLWDKkvD4wxhDyhA2IE5yxalphgQWORAA2BgOJbB5yUGF5jSEkuDN46+iTkXAG5Zm1ntwPpO131+aM/X6/+9NzIdrO0lFTHZr1kafqvXRRo+zHbRSWxZ2vTzd9DSzhdG6ZTV2skVCPSVulRBQ0+kWtP8D8npWYRWVd+73IqCBiDpoxOj07m7B2MMKVJHsZpG7F4HHWAWdVQhYZl1YCxjCdTxNhItLkf6bCiMbdLtdKr3WKh7vz1YjwXko3luMYoBqf+ZXZ8HDDgyuhPSk3paAqLrWvssqYAxEDTVITGI1g2KDtfKqxn3onSkMEYizWxIkofIUu2OdwwKEE9PnRp/jJht+pgzfbbTgrMNtaO6zLBnLdUvsjpb/140W66vg1kgWdlnxWBrCdpRsGQVPS1R36RTNtjaVp85CiSrCrVrC4mSbKKaVP29kfDxCQSzqHapIWPQSnabZUixbfC8aLhoQkYt8/ImUi9YkEcZ41n0XgWTcArMSGSGKwVJmMDKiyrBRoajIILJsbdjsfcvnWNX/tPaQgvnKueC8kKghQTgkh0PCBd1IFoBwy4BLLqTvCFwxcOXS5xVU2pIEbxocF7T0xxN9hmoSOzKHWGHvnExPE53CmmNc4TdCIgKQg+tBJx0IDXgE/fRWuutjVOsmUXetKXZhlHWnUyQKen3dLvHZ6oF6Gf0GG9rW4BsFrxpiXWTICdvLridNRKr3mMlE5ybEk0jo/kgc2nnBYpmWCjujkzd2o0wRjDeDzhrDlNbRoQmzx4DYpDiHmDK1Uez2rcqOLa3pTSgIpjXnnOqoo6KComOUCZbpFgLaOJIAaW8zMsgvNw++YNDq4fcXDtCHPvbswR/oLxfEhWITiLb43z9Ir9Dhgw4GKk56VwUBTgFxjvKUQxNpV2S/6NOQH5S4/kC6JB8T7gmyZFc0ifCTufkZ6jFIBYgzW0qsmgmkjW40NIyRR62Yqkr4WVVu0ZX1pWu7RwsS0D1EVYqUSU3ofEea3AmkmYzpzYhoGR1cYSvY4DiJqYXzip1EWiCtqkSucGIAR8llKzV1RCyGriECVDYyztMqgncGXV9ng8oqoqlou6rc+qYmhLr6ZrGICFwsOzBePxBKyjbpTTZUWTCRaDSvJAzvG2Ep2yxjKmWc6ZupJbB4fcvHGd0XSSPI4vd52eFU9Hsj2dOhpXNbW1Sc/falxgmAwGDLgaygIKC6q4ECisYixUHoLveRUOWqLOC1QV7xsa38QyZdZ2BeHkAk9gIRUXj6/OGlQtUSOayDs0iWxTWb2QJUJaxs5xpl0mqg3l8NIBVyXh3i9rMadbz3vNm7UvtPb3jX3sJN1Mtt4H5vM59bKhbmIVnKDgU+qOTITGphJvKljTzeUKTMdjJuMJhbOdhNyqiWN9Ok3csDLYye5rnWMy3cP7OcErIRNsL0Y3q6MbLPMm8OhswURLQmOpg/Qk2P7iU1IT6ZrawMH+Pq8eHnJj/5DC2mhLXhunLnyoh6fQNGyCU9VOoO9dvPWLuPI59IpHp++bcYmXAO1J0/NmGzBgwC5kIgijkmZcYgIUvqEwscrMch6oGz+oinvIpOST53Vd1wQN2PEYbI6tzBtv2D9P5Gvt5VdLrGMa1HYkpSFl31KapolOVVmVSk580SO5VXfklSu3yR9qWz7jnaSb2+2TRTIwhxBJdbGsmc1mzBdzmsazWC6pqxrf1NEruC07YKL3riFKe0ldbkxSl6siBsajEaPRiNGopHAFhTOURUHhijYNY1BtY2yz01lbQcga3HhM6S31WdOLd1VMzmElgkjAI4hYTppAXTUYLGpcuzCSzDnSEXNeWlkDt29d59pkSmEMNqvJVwauey/Sqca1p6XIbbem0A3XZNM1kiBJku2tgDbtqKG7cdrGVuKPwJcureYMQWIoTyTjgWYHDNiFNvhfQcsRoSxBBdcEnHqMERoPwXuim8sgyvaxWCx4+OAh9XLOtYNpm292E1a+v8QQigh2pa2kBlXBu6IXsqI0vsEHj0p2slqdM7t0kPn1fHzlSsTLFmIN63N03LjfSrJHC8fHZxyfnHI2nzObzVhWUXLtHaQNZ5EUNoMlJX7WXovxvgsaMKIslx4xM4rCURQFZeEYjxzXDo8Yk4ur2xgOhGA0cUI+SREwFuMMaruKb7EzJhFtx4BqBIqSBrBiuzYSueac1a0UmwS8wgT2JyOcyf7RIamUt3jp9047WdvTO9O7XS5e5EYpXtCgq+riTbr+1pidjn/u+Y73G2pzqTvam0vo2TEYpoUBAy6CWotaGyd3r9jgewH4wxO0CdPpHodHhyxnlvF4hLXRxhpLAmhr45P+ZLQOubwDTBKWIkGkWquIiXG5IUTJUGPawEzCITkNZeTwoGzLbL/rXeOtku66uli7TEaB+Od94Ox0yWef3+P4+JTGN93xk3e2JMmtJ9ulg7ayZKZrREyPdLLw5aP2IGkRFguhaRquHR6xN51SliUiwuNHD1GFvcMDRvtjnAjRUmnwTVwMSBLMsiTZD6sRBDGmVV9H+61gxIIUcTwIQJOctNL5iEaHJ5GYHTEvcLgMTV4NG6XYdD3cpo3WM6J0yt/zj3kgxn+rS8mYQ0wD50kqZdUcg0zrhDBgwIBzUIHGGXxhcQquaTAhpEdGUM3OJAOgm6fKsuDGjZssxxMkNL0RMlECy06Yz8kZM2vvAHJ9UwSssxTiyLzuvW9tuT74lnRXCDf0BJrQN82dL4Kw0od1D+XWMCtUTcWjR8c8fHDMyclprHaDriR1FnrFSCWTmuRUvdhWOtRYL1wVVOL7RGntKUiW5g3HpzOaJuBDYDSZoAKfPXiA956D5Yw7kzsYV0RhLAh1kxNq9ESxVSEaJKbNpF0Q5J9v4MJfUANiP8Dpe6j4diEg4imd7RVdjddKhTaL04tAdz3ja0uyKxet79gEiOYVTZwICLHTbXYnEbyLLthGaS9IHC+DaPLf06781IABA86jsTEhhVNgUaN1gzUGwaLB0MaUDEjzTKDxgeAVEYuxgiGkOgrayw50EfJEvLH66o420oSu2kmFaQK3xnVevSE6Z4UQaEKIWY9SgpGQy8AljUWWfLMUmY+j/WPQsxVCSgRhqOsl9+7f5/6DRyzmXSm5dgZfIbBErWJjQXQjOGMorMVZG9MBCgT11I3iQ1w4+BBJ1KfhEZ/O2cSImLP5AmMsRdWw9DXzuokhaCfHvKnRPouCb3KClQiT2xNZuc1FUoH2bCAmqmLFHFCaPyaEVzH2F/jwKcJpakmxKNPReCWNoorQaKB5wc9QP/vjOe/iLK73opHT25R3UgNFsKihtb16IwTXGcmzxKvErE+Fwn4VyfrJOHvlDWrkAQPWoUYgFaj2dYM2MX8xatBgQQ18CQH0V8cOVezKZs9vcmuViYlHjUmWs6zC1UCnRlvbd4uYKG0c8sYjkXkq2wJDCFRVhbUW5xzGrPoxS97PCNaUhBAokpNU8IHGe5rg8T46UcVC5iF65WqW1nP5uShBmnT9syNzlCKF5aLmwYMHfP7FfZbLChGXkuvHPgTp7PkCGLEYY3DGRmItHNPCMi0c47KkTJ64irKoKhbLhsVywWJZsayVZVCaLH6jqNdWnbuYL1k2gUZ9ymMMzrl2URACVFWu0tMtceI1kPayRVWx4Jwh1pONmlIVBZnhzW8o7KtgfsCZ+Q4j/wFCjcFTYBkVBW3e52Ta/OjePeYSx/q5P0fJxi0hi6VbJFlZE8uDEcaNcv3hgrNP7vHkzg1G1w+pHFEfHkCLtiRyO0AKuLDktZM5B+99jq8ajv/ihymh9e/dLDFgwFeL5AwSrMOLoMsKqeYYaRKHmSgFxCmztaW1GqZzerbn3sHdzb/ARzo7DLWf1w4c4zqzc0pMTp9VbauybPY12VLaLGnfuhkqm8okZbbrkiwoMXvUcllxfHxMURTs7e1RliVF4TDGdhN83jf9WYklDV3hUkIM35JsSFJuViurakpEEiXmrL4VyQk4DMenZ9y//5AHjx5TLWtEokRqC0fMqZTrtSrWRHK11lGWBeNyxGQ0Ym865vp0xNF4xKQsKPOiQQyNb6iqmrPZnNPZnCezGY/PZjw4OWGxbKi9xzdJHWuEOjRIA94AopTliGtH15KXMjR1w3IZMz6tlEBC28UMEgm2sBZnLMasXgPlmGX4K8TWOPlTxP0rCiyiH2J5zLR0FM51ZfFE+PzBA+4+fshCA3qY7oULTZiJnS94tnJdinybGUmOT0KvVp5uOKCAWOFwFnjnbz6h+eUv+M137nD8L9/GvHkdtZYgiikiX3vR1tnAauDGyZxv//0HjH76Pgtnuf+jb/Hw2iQari/s9leD38c+Dfh64vK8E4PqxTqawtEYgyxrTLVApI7qYi2SZkmJcYi946TJKlPIi+n1Lp+KC9j3KdVWfW/cVQdaaZvN85cIq9SZpcp2Dk/q1VYKSOnjexLFqnfqBgec9K5NDKKKOMsXjx5Gu+PBAaUtGZcjxpMx0+mEougkuH4R8NjFGI+Ks4lkPUEN3lt8jskNAW+j1Bd8ysWc6gsFAiE0PHj0mC8ePoghLmJwLnr7RqKPITjWSJJaE7mORuxN9znYm3CwN+X60SE390cclGVSGRvEGoxYcranallxNl9wfHrKg8cn/O6L+zx8cszx2RknpzOWdU0IgleL2CgtixjK0YjJ3hRFCArLxtNoIEhmgbQASfpPk5zWjLE462K1t+SQ1dWSrfH6IV5PMQJl+HPUOoKMsfpzrhWzlpjzUuvDTz9jbuB4PoPDYqVObE9522pl4xey8bZvU1aSpFdtb5XOWVG0q8KTG94ESZVBjozFPH7C3s8q3q/O0D/7EdWdm3gbA5A1LxsVrDa8flzx+s9/x/7f/RpzcsrJO68zcq4tzdR29PdMqN05XWyZZOJcMNDzgD4ueWP3bptgLHXpqJzFeMU2HpEmqYkdUY6R6NW6fhztf37KezFLxJt2788iV0FvFd+lIrzkrls27QSfrAoMyTjY2asyYUbNq/YcfVJ/lHahn/MUt2ScNAXZ6QzSQib92k2m8TsfPPPFAlc4Hhw/hADXrl/j+vVDmqZGRDg8PGQ8Hkf7ojGIMWBNO1tn85tgMC6pvTXFmwYbkza4gPVNzHYUgGBY1p6Ts1Nq30Qp2doUsxolUWtjAQVnDJNyxMg59qZT9vf2ODw44PrRAUf7e1w7OOD6dMy4cLE2rxGMcSuDpMGzrCrm8yWnZzNuvnKLz+/f5/7Dh3xy9wvu3X/E3Ad8Sk2ZBbdqvmAxW9LsBYLG/od2SSQYyVRoyBm7DKR+RGpVbS9IJGEFKxUin6PhP+H0D2nc9xBboChl8QuUZZSIY5l2qsbzaHbG6XJOeP16sp+vsmynGco3W5eGUnshTy2y03a3ebo3o739chmfVDkdO+7+4DVeP/kDDn/2j7zzj58gjeHsv/pj5jfKaC8QoQzKXuW5Vp3wnV/cZf8n/0Q1O+bj1w44+9N/xvHBmBXnglZ1fP5p+j3j3oht8Xdst/NcvumrnfHLR+x9I8ZXcdyr41JmERFQC7jorW/H+MJBCBRNTVF6jIlOG2pMDL6/cAyets/ZY+MqEutFpJ4II71fLz929f6FpC1zyShpW1XoSi+kL/f0V/NRgZrPJp6ugEnPsCbSTvmL2+Z6a5lMDt7AsqlpQsCVBVVT83h2imAo6imzLz7n+OQY1cDrr7/RhrUUzrG3v89kPMakkCOSR28KyyB6RksMWzUCEqK/tCWqYkOgqTzHpzNmiwrVSNzWFjjncM4iRrHWMB5FtfD+ZMJ0MuLa4SGHh4ccHR5w89ohh3tT9iZjDscTSudwrmhrhdMpy6P07z1VE6veHJ3e4vatmzx89Jgb12/x/m8+4tPPv+B0vqDxIY6jEVQsy5MGOXJ4A/VS8V4IacETz8wShLYggYhQSIGRIh5ftd1eTQ7dAUOFD3epzE9B/xgbvs1CDI+04qD+DWU5i6p14kLlbDaLMbvtfX7+XtetnzQrQbr7Iv/SEnC6j0Lc9pJpFRUvhvdf3SP82Q95QwP7v/gd33rvI76YCPf//J8jEr3jrCpHx0ve/uAjpn/3Ps3pMZ/eHvPpH/+I8PYd5ukGz2qc3M1VgfYZVuJtj59hzx3zU3bLft5Yybd62X16oVYb47ReULjUs7S7vgi8wlGTPTK+/3LwLNf68vrRaINyUR2MJbgpjR0h9QLTBOwoj7mQV/Qvdm31IsY3d9hFiWjlaNr+f74nWbpI5B80lq0LHvWKeo+GfUQPCbpMPktZMrQxk1Bqw6ghO45Jq3iUzp6t0PMm2rwYSGr6IFFCa6SmGO3z2usjQvA8fvwEXAHGUXNECDXBjvDec7KYUh3XLJdLxuMx1w4CI1endNUF08mEoigSUaaSfW18ryIaIMQ5VhBElXkzYzFfYO1rmDLgnGVcjihHJaNCsFJEW/F4wt5kj/3phL29CYf7B+wfHLB3sEc5GWPKkmALKlMSxGLVRuWsJjV5UrNHKS+qr32huGnNNVliJzPM9AzKz7CTD/n8iy+YV7GgnFiLLcaUoyPEvI4xFuOWGGuwqXJOJPMU35wWO0YEcSOwLo5DysAUjAfrMKZExWGCYkxFI49o/DHCDSrzXe5XS0YKE/cR2DNEYTGfRxLvOaj1SsnuvH83ZkPUTLqrBBsTfsR93KUmdjE0RjkeG957bcrZX/yQ77qSvZ/9E/Znv4kX/93XKEKg8A233/8th3/7a/zjJ3x6e8pnf/oHzN/9PsGe53TFpU5NWK3YkB2prvjAK112lavtmdRDwlqlrF7beaJf30CJHp+7KuhmFZXpRUj1LWhPMbG1WWS25EnN6rLettl7sZMuTK+5TSOW7WF5v9hw9nhse94u53LVjrTiXO9bCk/YtVjJKcw05OuY+5BVaFcfq85h5dzZdf05d/79a/00xJNW8uR52wD2HHfHBacFLGOvPHlyh0cTz0hnfP7kNZ40Ft9Mefh5g4Qm9nrLGOh6u2tH0qQ+3T6G3WS62nBrgGqPtLKab2+COJ6rY5kMVul+02Da/sfFg2d1EZVh4t2b7c+akjeEXBHGRPve8T7L+tuY2mOCdsK4ERTbSjwxFDHJu2o6Z89s5koTOdBzMN4wTirJlihxMrXK4c3orGTHc0ZHC4ISbYnGElLIjisKqiYmcHDOYYuibcs7R2VGNClsw2LbqbkNLkqxqNFbOZrdZLLg1huP2b+xiFKdEcRYxFqcBasjnC1S6sMCKQoWztJQcLwocd5hT4TCCFbAmURusqpa7/y3YlGBvB7xPtpYm8azbDzL6ZyDO2fI9TPqpknX2IIYjCtw42lMLDHtwqs0td/OJ9IJXVYsTsAmb2tjhSAeFUFMEa+niQsQEYeRm6hYvI45a97lvlaMQ8PY/Zp6uSQ0NWOFW7dv83PjV+7tQCdFn7vkutlVbl2b2BKs5tzNXI5kBYM3ShA4GVk+eP2A+X/xfQ5ujzF//XNu/uITJl+cUtYGF5Rbf/sBnzTw2Y+/w+KH32Lx1h38eNz2yrQBUKAeju/d4e6HY9Tvt0ck6dCfBprugKehWZHzkXJdn3oP5TkEdpepj7dNmy9V1399StFEc5q13fu3pK6skGWvltfWFnINyS7wfa236xNva7tKD8waeW1dFORe9Tzdu23bFOxPJcZtUxRovz8bSfYppbo4q6+Q7DYCy0dRYrhbWe9zvbzBUV3x6PiAB9WEJpQ8vKuc3J/HJd2OUJhVrdD6kXr32qaOpO/P3ePp/pF2/JMaNs++mtvt77feRrdoWjl4O7uud2jtSdTeQlDifSsoolM0TDCpBFteuhqlqwvba6TNcZv7mMmsv2jM53puJKP3bNtT2/VZCtgfwwHRGzlGt+RFYhpRI61pW4RY1SaHsRiDDzFXdb5hQ/CoptzBKZ+w9x5VT9PUqMY8QewAACAASURBVIP969c5iA9b3M1G9blFMCpYY3BiWxt1vGI1TVUTmvipIpKsarRrm5S3OI9ZRz6dul/TWGaHMwMcTmB/JDTXJiwrz7L2qDga9YhAYSu8+nhuabD7RGUgxupqwAiomJibWtP8ae2aNkyTI2CN0WsswyEuja01M4y9jzXztGgJ/LPvv0swwtH16/zi+JfkObud2tYud/cxXaN1KbZ/6+bwq5yGOPGQu1D1p+39nBYyQuUsH76yz/jwHcqxsvirD/j+JycU3mG9cjZr+NmP32T5n/2Q4vpRu1JBQ3IwyBcJFI9vSj79eEZT16sn1Ht/ZfRc56+C2KctNGui2/y2vdoV+0akvLMSOvk1PcOReC1Pp4a9mGChk9JXJ5icC7fXjx1HycLK6iq3t0F6ExeovRut3w+RrhzZRf3tr0YkHUTCjjG+oL0Nh4yao+SEcg75rC83xqvt5lyqpi1erRcuxOKcXVQNr1X3uHH8BFcccToqqJY32bs24+jaSdrwSt3p9UvTtd5wr2p/JbI6WJ22QtOckD0uVxdE+b7Ynjs4xWr2bsM+b64iJ63vZoK+BkQ0oL7m/md3+fTDD6nPZvQCCbGE+DlLqSI4K4xHE0ajEWVRYp1d0XJI6pDYniNV6mzeIikCV++ITNQCpp8+kW6hKArqPRKU+198weHhIVpa5s2SxXzB6ekpi8UixpOmunUh5FjS6Bx0+5VXsNYiBB7e/ZRHj58QAhTGtbG648mIyciyPyqZTGJoznQ0xllH4SwjGz2LS+cYl5ZR6SiLElc4xERPXmMt0QkJ0ICYFDObNUvBJ4m2ywEVpVGlaWrmywW//fAuv/ztR3z28ASKklE5ZjqeoqI0vmbR1LR26BAwwGRUMp1OOTABaw1VEM5qWPoGL2CMS3XLZXWMbcXp8bvM5F9zOL3BmMfsu7/llcnfMjbHGHWMS8d33/4OUkTbLyesPNZCTKYUYNVbuE+kmrmwI9FoPwANOb655xyll7HJSlTaTKRgVtexDJdEFcG8dIQffoe7rqT+/37Nd+/NOKpq/uYHt1j8yfcpb15LBxa69XPX60gugYObn/HuH1cpAXr7BLVDeHVsdrm+LMKWPKZx0tw24e7or0CX2F3bLzXJCyrnXDYuDWG7imN9S4E1MgmoNtC7YXc3laaZ1jGh98vKjvlO3DQWwjbV7YZD9ee46JX+lNfVoOeU/PEwkhLKmy096nfk8tDWQzLmXY0SWJyUtkni8SFX7LKhcJ+yKO6xf+dNDpoTHn465ubtGW9/7yROaX1BY72r27qbiWLbfZxIttW27Gg+ftFfZJ1bTW0+xw1Nb5W813I2K7E4ePAx4xA+oL7h7PFvWJ78hMXjY1x7aO3oUJPElWyAS1dQFrF6jHWWsogT+2Q6wRkbNT3qQTwx21D0tM2J+XOscisKrI9Zq1kKqS3tnU6gCQ1h+RE23MTKCKTC2CVanFFSEXzg7PSMs7MzltUSFEKIoTTXpj9gtL9P01Qcf/ErPr/7OU0Do7JgXJZMxwVMR4z3x9iDKePRIftywL6bUhQlo7JgMppw7XCfg8mEybhgMhbGY8UV4JzFSg6ZkWS7XCsFp6BqksreAz59DnivNI0wm0PpDfPjOR//9hd4O4LJhMIfYEcjfNOwXMxpmoZCA2MjTEeOg2KfPT9mRFQVi1gaA01dUYeAF4NQtKGmqoaqmVE1wrz+N5T7N5mEY/bK/8jR6O85GJ1igo8LBzFgLZ6c7r+vWewEu/gxakUyaXbnrasalayJSPmqTUu83TY7STYau6FpGv79//Z/8i/+6I/Yf+1GS5oohLJk+f073BfH2c9/w9Gs4uRPfsDerVs0PmD7zJ/vtPZiKaoNRfGEb3/LnlchPjVTPqX0m/e+UFLa1K+L+romeqyRkupmYr8MZCN9bNt4fWJ8upLCFx+HbgW4kw0ui3NKxit3Z9tRezLMBS1cHqv9zJM9tDbrLPGv7SQIZlKwfPc287f2sNMj9MOYnq+wBeOxBak3a1suQbK7N8ibbSZZ+s/xl4W1fqhoVDeqR/FoqCn8jHFY4sMMI9ou4mIsabr/RKLq2EPVzKkXqXkjFK7gdDyK4TUSE9GXhWMyGVOOSgTbFjPP10gke3n3OymdWSA904LvJnEhhkPScHj9gGJSYJ3BmpJxWXBwMEE10FQ1p6cT5vM9mqZhWS2ZzWrqqsFZpSiEqqpZLGaEpgZi2M54LOyPhKOxcG1asj8q2BsVjAtHaQ1ODKVxjAvHpBwxHY8ZjwvKUYlzBc4WWIkSq6SFguTzls7PxSKtRoQkZccFULJRBxAVbl074t1vf5uPPvmMe6dnGAuFA+dAXIHXmHZxLHBrf8zhqGRUWKyEtkDBSAw6Mqg4/HLBUpPQphbvPXWzZFYZav8Oe0d/xGRkGBU/YTH/v2A0w06Oko05XSFJ16i1x+eI5774Q5txqyXR3EArS6UFV8pmFTT04mbpIssukmTzCtA3Df/uL/8P7n/wEdPrh9y4cQNJdol8AcoqUM0fUNaK/9kv4R9+hQ99Y/GWh1Nps4r0V7RKvoBfMmS3veuF4Ss4ZFyEP4PIvwsv4HyeZYLP69avFn2Hpe3nEgN0FC9Ko4bmrKEMf8jH73/Ig09/htV5ktK+XLQqsg3oq45fdB80hDbnb6hrntz7nOVsRggejGI0K41j9ZhOfI4zTP6YpZK6qWjOamazMyDaP8uypCyjCrUsyq52alEmVWpSHKu2pBtrsWrPlLyq6oaoyxBr2Ts4jGrfrEWRSB6qHimFw6MjDg+PUFUWiwWLRU1VeYqiIHjPMn1uic9ZJuMRe5OSg+mY6XhMWTjKVIbOWYs1Qukc03LMZDSmLMcURRFTL4pDUhm/vFBQEtlItC/3TyvHDIuxSVhKKSGDEIJBiCXwbt28wTvf/Tanv/4NtVqMLRBjcQQmhWEyKth3jmvTCWVKAdlldYrvCxGmZUHdNAQftQNVXbGs5yxrx4wfcrj/3zCZGkr+ipP5v6M6/g2mFq6XBXuTKa0mL5Fqby3UmTnyPdG/35Ik2y2waMc8/94pXbvvW0WRpKLtfZybdJM9YfnklJ/95G8QMUwP9luHh5g8RZIe2mCCRf/x55GsWtrcPiGcezh7LqtXqD713KDExBtf+kG/IpZ9URz7IvAsI/R1y6kf8mJP4Vu3C15/800+/Ohv+OKTf4tQv7AT2lY0fP33dbzoutH9SbBV20K0y2qDlRgLWhYGDTk5TgyNyWExEAutB+9759E9AyFpG4L3+OWCxXIZJ0lrKYoytlWWWOdwhWNUjhgVJYVzqTxpXESJGrppLWstupqp1jqMWZvMuy3JCfEzAYzGI4pykooMaFS1LpdR+yXRA3tcFuyNS/bGI8ajMYVzWBvjXWP+YsFZy7gomYxGjFyRUhVaosc3qMkk0S0MIsf4Ls+vRMev6KmdqFijCj3+ZaE9qmcnozHf/fa3+cfffoxqlLhzUhBroByPOCxLShvzIhmJixwREyVQomdxaSz7kwmLkxNOF2cs65q6MgS+y971/5a9yZ8go/+b+fG/Z378PqaZ8+S04bPPLN/7zncwxuYlVjq38/fxLk1X62KyovrX9p7sE7Vk4o6KYNxFnpoK8aZF4kCr5/jh46QT79F1vEsh1q0HAS8pO80lp8dzhP9VSR5fI+L5fcWuSfdZk3a8DIhPVny2Pq7+I6dnd3ly8gHHj+7FX17QQrB/bTZdw6/q2rXaSbrJLU7CivcxHrNwFmeE0lquHx3hnKPxFfWiwhUOY6Wt+mKspSgcLiWQb5o6EvDK+UUCrhtP3cyQRZQ6jTVp/5LSRYejSKLRcONswd7ePpPJGGsj8eQcxHm6zCkZW5NKe16rYXlZSjZZc6hQN4HFckHjfax8JsL+ZMzBaMS4zfRkcCnBfyQJYVwU7I1HjMqCuOYIMeZYIeBpgmAlJmvM19mHWMCgk+g0pSq0sbSfiXHHWcLMxSs0vVrnuHbtiOtHBzw4XcY0j2QnNMvExn7GwutRnS45G1bysrbJv6EsLKcnjzir5gQMmB9wcPDfUU5+TGlOOXvyH1ievI80i9R3w93jR+w/uc7t67eRYFmq4f7pMWdNhQ+bnRC3rV9X7LArkQ+sSABtPG367GLQbPdA9e+x/kOWi1Momuwb+dboXqNUm6eHbs1wWbzo1fCALwfr+Vk3YSDa3eirt49PP+Dk7DdxJS3Z4/YFHfcir++v6BmV/l92vCNLtiRHmgXqGw5HY44mewiG2tdUTUUxHlGMyuTdLkm9GfB1jRL3NzaqXG0Kpcn1X42k2FwUQsCr4n2gqWsWK1q42CmD4eT0mPFo3BWQN8JkMmZUjpL0yOokzepMmVWamkJXsjOViOIbz3K5xAePoFiBceEYpdSJ1pjkpCkpWUfAijJ2llFhKGy0qap6Qp1CkjQv6WIwTtBInE2qf6u5vF1TpUL0sY7v/nSCM2l77REtmqRZxVrh1ds3OVnea8sAGomJ/61GdX6TYm+NCoWAE2IsrEh07BRY1guWizlBPWrAuBH7e4cgT5id/j/UZ+8jIaY7iuZHoTLK7774gvHeTapFw3FV8cQvmTcV2zIN7kLrJZ6d2/L7dvzOY0PRdl0hXMlvtBePuZLW7XyzIc4G526cAbvxdSeec4WkBzw3hNDZTl7KtahsmUsExFokBEQNwUM5GmHFrEgZBqEwDrHJbipE6cuHFamkSlJWnkSttRTFKEq7dUPjG5p8LXQtkCdNj14DZ2enzGZnSWMc2yzLAudKnHVYZ9swolyZRvtE1ROQ2qQsGtXZTeOpmxpVxZr/v70z75XkuLL778aSmbXXe72TkkiKy5AawRiNZgxDoqXBAP7qY8AwLGM8kCXRlLg0xV7fUq+2XCLCf0REZr3u5gotpFgH6H5LVWdVZWbHjXvvueeA1QoL4B1CnocFkjIW3mOSV2ysavv4mDh8kNTD7qJtaTqpXZd9biFJMMUZZA/7umG73dJ1LafLBbPJFGv1tfMYcmk5eBSK+WyKNU9pSH3RQJ+hdgKb/Y7Lqyu6ruPW6SmnsxlFKvnnTfvZ07M+fRPRlPqMUP8bPsxp9v8dwvYgaOWNfsG6dtw/X1F3Qu0crohOVxI+66Z65gZjCKT99wel4i+S9DaZ3HSI4Xd9ASNd8GEo+Qtr2l/m/R/R48tkf98WfJHYxBFHfFW86G7q+4eBg8U9YIuka5uIl0pJYphmMY10gCT8rtKIVQiBrmnIBC9R0gc4SccjCCbNmUK0uXOuu9afG0q+199v2zYxEEg0CMj9YpOyXaXAWIO1BVpncwDS56M/ft1E5aKRwO07d5jPJpQE6DqksLGnCRBipqskoEll1zAEbR+yIplEnd2uo+uSoXyXzq5E83mldcyQi4JAYL/bcXV5yer8nOVyyY2TJUVhY5YuScCG4X2XRYk2Ok5GxZ0DmdnkRThbX3G2uqRtG5any6EJKlGZy4XAer3B+bhWGqUJ3VO0/Jqm6dDymI6mD7AqEd6CaIIYzjcNzhSINtFiQ+xn32u5enD4faC/rrxgfRsobvnWGh43w4HSgwfZyGFZhkyDltye/zwMVlBHfDn8rQTYQ/w5Au3f4nn6LHxRf/SzHvvubXDyeEl0zikKG4ttElWDCm3QWvDOId6DUkMxToZsIBqyZK3jdEznaFwcw8n60eKFNqWLwXuUKIrCoo2h61qaJpdUh8V4UKoCgo/jJ23S9s3HFYUxsd+rVCQAWVNgrMVogyA4H2jqHSPn+fEbb/Da97/H3Xt3ubw45ze/+w1WFBZBxUZwJBLltTuk2OVyJisxqw8+kr6c0LT7KIeY2pVaC15biqJAGZPMBiqWizn1bsvv3/9/PHr4gHv37nLr5k1GB/rLPkiy6wsU1mKUgi5m6XE+PZ1/gQdPntC4luVkzng0Rukol6jSfO56s6F1XYw8IZoeCB1N85Cu65Dg8DgM0bVHieBDNCAQU/aGAohKpu+RY5RVq569n/IOIeT+dBjGfAayV7y+mch1zZ3nYIdxbYTnc/8j8wwT9Yt6Nwd/H/Hdwp8zEH6XguyXxXf1nAwjRUN1TRQUpUHpWCI2JsnwZQWlkA3WDvRyU5ALIWW7aWEfvuZXzP/Gs693HPwWCCjnEnOZPhsNIRqu+zR21JeE/TAn7b0n+Gh5F8vAHh8cIgqdlJxsUVJYi0Kh6oa3b9/hrVs3KLqW0XbH3739NmMlPHjyCKeEznf9vHA2HwmEwQi+i6RUpcOQUTpH29bUdRMfD2CMoRwJzkXjdqVjpmy1Zj6bohU8eXJG1zUoBTdv3upfz0P6zIHJqEIfivJL3EQoYpZ6td3QOscP7r5EZQuUSv3heCguVqs4EioGF9qYWQvs6n1MCFUUfVFers3FelHYokr93ahipUJ0MMrl/hcS/PL9FHLCOVQA+kw2tVGFIdiC4L0na0yEwGfLKj63O/7KPeLv2m76iGfxXV38/1T4uufvO3Pe+8pvjBI52GmdWbKgpddVS/E4AP5aPy4H09x/DMTMrq/eMQTdPnGQIWAEH2iS40w8RHzEuxTYfIgzvX7otyqtKYpYsmzbjq4NdD7LFMbX8t5HfWJfo3ZNDLbAK5MFb928wUR5QtewvXzK7nLB2z98jXt3bnN2dcmDJ4/YN3UiASXtY5GoOeY8XjmUjqMy2hgwCuVjkN9ud6zOL7g8v2C72bJvWloCLZ6mbbHaMB2NuH3jhLKwjEcVIUTjgxACbdfRti2di9ky2hBEYYwGWsBjrEGrOG51Ve+wVUG3q5nN5olt7PpSftN1rHbbmJUqhbikC61iRppV1bLafc5+BXDKYk2JFwMIGgXBocJhIHxxoM3SipnZTgiIHwwqlI813ZAyc+/TcZI0XQhRyOI5MYrvzH/QI4444m8EWapTk+ucSgJGogpsHFHxBA/uYN6z/9eJDxFIC3cYMpkYoSQFvXAQaGU4hjy/bnaJmNRXD0MWNIi/8N7RNnG0p+scBB09XHUBIWr7Bt/lVJvOdzjvCU3H9195k+VsxKgQikKhRfHx/Y/5wWs/5KW7dxhNx9TNnrOL82gSIGrIIl0qgZqQnGwEZTSmsCkbTGIUzsd54a5jtb5i5xyXuw2//r+/pt7tmY0nvP7Kq7zz5uvMp1OUNVRVhYjQti2XF6v475oWby2ND9T7PZklrbVEA4AQ2DU75uMxFmE5HmPU9fN7vlmzc22qwCYnKR8IWReqvyYHohIEvLKIHhHEpD54rGo45wjsnwuyh2YmPXksSJJXjH3r6HHYXxayFHdfKc7PzT/zOeXi/sWG++KII4444huJuHYlG8QQola1DAt5JBF5VEiqW0N87MvFkkQWYg6ViTvXA2UW68+vOZRjP+M9ycFaGiT2QYPHdZ4OF7PKEHunHiG0IZWWO5Bo7h4CUe84esqxmI6ZL2YUFqrKUNqSy/WGy9UldjxCBMajMdvtLpoCaINOAv/0Zc7Q7xWUiiIR2uiYLRvDZDxheXLC9vYV39vt8CKcX63o9nvee+899psNn3xyn1e/d4+T5ZJqMqaqyj6rf/z4EZ8+fMT51Zq9D9QhjgPZxQlGBYJvEWUJIbDfrHF1w7yoKLTux49IKoBP1ytaH3rhfiUxA/ap4hCCJ6g8OKTi1yA0psDaCpWs9kQMhC65+tTw2dwnchNAkk51vBmGi5y1RHqCU1InzHfHIS/iuUz2OVmpg7+POOKII75pkETu8TmGeBflhEjrmWSpvlRU7nuwsScXl7w4AhRcLCMGOcxwMzFJhmOGyKCVnO1eWyOHMvPASE0/i5DnRwMxwJFKkM53cd40fU8IkayVyrwhBPAeW5Usb5wgfh/VqIzl5q1brHdbNps1QSmsMVRlibI2ko60TqL/1+NFJuxkDo3SlnJksKbD6gKjLWW1w3vPfDKl/Pm7vPnKa9z/+D6ffHIfAcqyYjadUxUjRAmdc6yuVjRtw3Q+p/Ce1W5Hs90ipM/qIunKe0+736Oc43R5IzlWSQqK4AS2dZPGR1U+u/2srksbKkI0gMjX1okmmAJtLVFaM1szqmHmGa5lr8P9dJDhEqLxF/nExb62hPBcMM3m74cMc3gmyL5ItzFnss8Sn/4SDMZj6fpvD39N5uvxfvrz4a9xXQc3qJSFCmiV2KMxhJE1cAXBS1IsSgt4yIt1PEj+JAO5NAfFrH+cHhdUSm6eVfw5FJAYCDGZPBUNAw6efjgK0rOcQx+zuy4awfefL70fpQ2j0QjVCcF31LsdTVOz3W5RRlOMRmitGFUlSmsqbSm1xao4hkO/GQn4LpKgfOejuYIGUGhtKCqFT5npbr3GO89iMmXyxhtxlnW55PTGTeYnJywWS8qqpPOO88tLqvGYV2/cZL44xSnhar/nN7/7HXsCTdPSEfCmQGnh7o3bhJPAYr6ILGrRac5WcbWvaX0qbR8YoTjvkkhFDsiR2BRnehWtLjC2St66ajjriVZ+KB/6XNzLFQqfzAEOGOLhwCv2WbWnYat1fcTnuTnZZ18wRu1rR7h2gx9xxFfB8b7528Rf87rGqmwMUlqp6MeKR+mCohgxn83ZrDdsN9GLV1SejY0zot7neVkBpcEHXGYhp/5tSEGwF5c/eN2sSRwTYoGkXpSdtTI5Jnifvj/IdFJzL3iHC9E6rp9h1Sm5QQg+FrAdnn27x3WOcTXi4uljHj15zEeffIKyhtlyhi00XmmClCiJM71lzmaV6rNY3zk61abfRYMDHRKJKEg/mjSeTNjv92zWV9T7Pc45xpMx7/zoHW7evMlkNqWsSnRh2ey21HVDNZ0ym84ZT2doa5mfCE/PL7j/+FF0rtGW7W7PbDLh5o1baK2SYYLCB0XnNZv1jifrFd6nEnKITVBJZe+gYvaq8mZKxXaBF4UUFdrY/rrkjUpmAL+ovN/fT7nqEEI/iuXTSNQgPvH8pnJQzboevE0sFRz8gz445z7CV7jbjzjiiCP+wsg8JiGOnKhkBlCVE05Ob3J645T9hx/jw1WSw1XJgDyVjdNaF4XpY2lWhdArQ4VUMn6RWGzOmEll5/gnl4kHAkxefgdfsvS6eSH30Zgv6+lGbV8F/jAox/7teruh6VqMrXDeo7VmNpuitGI2n6KLgo6OQixaFRgTjQDyRkjlABI8nevAKeg06MjPzYzsyErWVFXFfLGIms3G0LUtRivG4wl379yjrApEK5wiKioJ/OGjj3h6fomgOblxk1dffx2UjsplQTCmYLPaMJ4IReoFA2wbx3pfs28Mm33DzimUGhHcniA+lobjG4vXMpPeUhDFCUEZbFFGh6BUIu+fk66fSipW+VzDkGDmSRqf+viHGK72izD89lomK9cfe2GEPgbaI4444psL6XutVVlA6tXNFgtu3LxFCCGOk6S6bRQrUPg0l1pW1bUxjr7Hy6DCGzPR3J8FiBKD/c8+vo++YJizocNf9+to6gfnjOiZCmG/QDtidpZKzSHZ+9V1AwqMtUwXc2aLOae3bnK13WC0TbKPgpIkzJAVoIaXj19yydilUSEVS63RPSBm9jFJl545bK2lbVu0KGazGZPJOI4CaaH1nrIomUymdL7jN7/7DZeXG05v3ubp6pLpckHTOoLSmGpE6Q2X6y32dE7dODabLesGNk5oXIhqTbrCiKTZ4hZwyc826udnY4H8eUQUPklXSl9GThrISvXZqNKqP+2f5zj1p4h9z2kXH+PpEUcc8a1DIiqVRQHELE2lEmTbdSnVHfqztihoO6HbbrkxnVLXNV3XkQlOkgJTr9oUOMhj6bPW4QcZvvUvWEdDLisPx8zl5PhC8dgqedIqUTjnKYoCMYKxlv12C53j4cMHOP8jOu+YzubYwlDsx+wfOZrEVpagErvaJEs7NWSyuecIMWNzHicOpIvbFR2rAd6nfjSCMdGtyJh4PhWK2XQWpRJTr1KhqGzJrRs3eeuNN7Gm5P6nD/jjg0dcXF4StGK1WlNNplxtdlTTEzZnNWeXW3aNY7vvqLE4bUF0em2HaIvWRdLvDj2BjQN2d9ycKEQ0uijR2hKeCbKiFME7fAjJREGGcv9nIXy5JHPgLz0vp9nLKh6D6xFHHPFtwiBbmDthYIsCpQQf4GL1lPlihuscgbYvI3sCFIbJYsrJ3VsUheH80ZN+sXW9HOHB66QS62GCmh/Lcnoh5Oc+Q4x55j1f+/ngay7mKlHM53PefudHvPb66wSBut6zuVrx+1//B/VqxWa3o3WOUVkixjCeWsrVFfu6QUTQygAhju6kUnEeKYrfx9eN7OIALuDp8KJTrgiiJWWDsUga+6YGa31UfaoKgCH4KUOhLTeWJ5zMFqhXXuXO7bvcu/uITee4WF2y3+9wwHa35WY5JhQjHq921F0giMWbIp2DyD6WIAQ0thzF+dYsV5k4T7HnqlGiKasx4/EUX03Zu0Dnsq+vusashkBT1/jCg3ox+Wk4O4fX7XlN6iEAf3YENZ//8BFHHHHENw/XFsUUoYRosG6swVYWYzT7/Ya6bgnBUVhNSMpLq82au6cLbty8wXp1hU+G4iGAUgEJybk2j/lAXzrNAfSFC28mn34WMeYFlcmA5PFegkRG77/863/jP/3DP2Ct5cMPPyB4KE5LfvLP/xm737OqO1bbHcZarCnonGM8mdK2F1E6MmXt6gUcn5x1QQ6ywxvv1akkyjxKMlGI7GaFmJgxxkw3SkhmcpAxUdVpPBoxn0xZXV4hwMsvf5/3PvqQ7W5HCJ79bouxlq5p6KRgh8EplcQwYgabg2hA8EpTGoUtiij5mAJwEEErjS3HTMdTRpMpRVnhTYnsazZ7B8TnANdE+9frNZw+ex2GcwKkTPp6NePr4Lk52UP0tWr509SmjzjiiCP+PIh1vaq0tHXNvmuo93suzi9i4HAeCQEtMRvTwdBtai79OZurK3zrMdrgiVmaDtAmGUSPB1QKpInA1JOcSP1Y+vrxtYw2r6GJ/HRYSg6HETfEVMPm9wAAC1tJREFUw1TVmJ/+9J/5Lz97l8VizgcffMCDBw/ZrNcsF3NunpyyW1/xq1/9in//j//DP/39O7z91ptUZdkHEx884pNoA4EQXHprydknZbKxSh3SnKwkxUmHd0IXQHmF9x4tGq1Tv5qoGNXU0TRBZZEIUUgJVhsKazldnuD2LRebNc6W1O/9ltZ15K62SsF0v3d4VGQKSyKXSfSDVUp6y7xOAqYcIVrouprJfEZVlSjRGFtQlSO0Mag0fjQuFSHUNG0ueSemrzFMJlOKsuN9WePwh5fg4Pu0EQmZIHfd0i7Hw96hKW20XtTdNZ/n9CHDA8mHUI4sqCOOOOKvis/qoQmBwhia7Zr11SVKGWI9UPWzsRqF0RZjNZ82nySWsae0BdWoIqsNiegomec9QTzZnSccLK4xYl7vx+bHQhhIUYMNnh+O0SdGQ932ZHHCz9/9BT/72c+Zz+fsdrtoGOADrmlpNjsuJfD06VPe/+MDnn70B+rtFmsNr/3g+7iuiTZ1roulcSUoD17iJkHy+AvRDCDP3QaJfVmFEKRLH8njtUZ5idm1S+XmEM3s27ZBi6I0Fh8gKIVWGm8dxlomozHd6SnVZEyjNPP5nAdPnuKDwxYl0+UJYgradpcCfZJ79CH2VdUoZss5yAJGW0ZlgTYwnU5jvzpfqzSq4xG0gDWGcQXg4pxtiFmpVpHENTFLZPXRtciaw1uqT6TLmi9qvEZ9cJVMtDoItFzPljNMJgMcXO7PwVDVPuKII474S+MwwOYyXlwLA+IDRmucVimBHDqdfeaJx/mGfQtst5F1qjWFaSjrGltYrDWItj0hOCQ9v0EjNwr5D6nsMK6T+S19Dzf3D1MzN5edh88Qg3phLf/yy3/lF7/4JcuTE87OnnJxccb50zNW5xds1ldcPHlCVRW0XYcLgX0IvP/H+yz/fUyhNeNxSde1aQwo2SUoiB7zvjeHBxc9VYOLIvdR0xEvkXolqouCDEmuMCiDcjH79d5R13u6pqUqSpQp0FpHcQkXg28goFUkl6EgdIHJaIx3Hq0t8/mS6fKEXRNVumJIcwTX4lyHLiu0GR2MPUWIKEbjEWUZ++65nJs3LkrpqL0scZpZG01RCs2+JTospYz0mZ56/z09B+1gE5QfC9cC6JDJpkdDOJDKuA7zxYH1iCOOOOKbDwUURtPpw6wzWsaFVBKN5juhD6AA4j2uaajbFr2PTNqiqnCiovm4wEFNmKz0lJf/LDmRF+YwPCs+ctCjjUH2mX4ywk9+8lN+/rOfc/vWbeq25uzsCZ9++kc++P0fOHvymO12y/pqFc3VRaj3DU6EFnj49AkffPQhL790NzVh05zvwZ9ITmIYZSEGTIibCCWBrGgY/BCQov2uT4IPMQOu93vqzQ4zgb3E2VlH7M3udluMMbTO07W+z5QLW7BcLilHEyazKd5YztdNZAgrgeyvGzzBdXjXIWKHcjuCtUX0tVUakeHzkM6pEkEZQ9am1kCBQu+jPOOXRWDQJu7761mz8wXP/qJRn2tWd39NybsjjjjiiK+FNNLhUgZVFSWL+QJCwDkfhfd9SKVUT6/x37dLoxKTSy49beeoO4cuCsREB5eg4nMG6YqkCR/67t0z4zkpBOfM9pkMPP8DEWG2WPDuu+9y7949bGm5uDrj6dkT3vvtb3nw6acQQGmFKQrOnjyhrhuaekfbdWg7Bat5ennBYjmlyobnISsVefAkotJQLo4/Q8Ahjj44i8qVgfhXIHqvhjQCFQIYYzlbP4am4+zsjF3X0KWTarWiLEuUtphiRDUbEwBrNTdu3EDbCtGGTeepWxczTOIcbL3fEnygbRpm04LSaHq9YoGyKPpRpJzFOudQCs6ennH33r3hc6XM0ihFoYXaka5y9u75cogl4Ovx9bAfm3/+vON9LvHpiCOOOOKbDEmatoKgfADnWUxmLEZjRISui3Oj3kd1o6br2DdNNFIPyUjdJycXIkEqoHBBQGtEa3xq1In4XpavJzbxTPmXJMF3UG58YYBNGawyhv/6i1/ywzdepxyVON+x3qz54P3fc3F+zmQyoaoqlKgobbjdULctjoDShsIW2KLACzTOYYOHoKNwfppf9SoF2qSUdJjVCgqVyseIoHw/G9M/hxDwif2rjWE0qlidjbj/4cf88dFDzq9WbPc7rDG8dO9l5rMF08WCG7duU/gRnesIPmCLig6DD5p929E5j3cBVNSQrvd18t11VMWc0WSSyu3RiF0bTdyYBKzVdF3H/U8+5ubpDe7f/5C7d+6k0R/6Mr0SGFcWtjXBd5QhUGgoqhGy+hr327UAG17Yg30W5pi9HnHEEd9G9ApNKTMdlRU6QGWjnKBKpuAhZZyegAuBrmtjME2Znk82Zc476qYleIXXhnXb0nDQmwsejz7oEl7PSmP2eL08fP05iSSTu3civP7Gm/zjP/0js8UC0YLrHI8fPmK/23Pn9h2WyyW2sHRtR13XOALWGmbTCb/+3/+LkaupbIG10SvVh4AmMowjyziGUS8+GZwPc6EiggoBgsLToTNzVpGM57MhevqT7PCKsuTu915GIWxcw6at2ey3dG3LZrPB+8B4OsWHwG63Y7XfsW/aqOCkDHXn2bcuMa1jfaBr4+ZCpfd2uVoxmc3AKhRgtaCVEHCMxzPK0lI3O4xWbNdXTMcVhYmbohBimdoTNxaVVVQjy7QcMVJCIYIqFfL46zVLD0e3vgwP+JjJHnHEEd9upHbZdDrBmOjSrlPm1ROAhkkagjXXF8ekBuS9Y980+KBxomkvVjRdE0uGQjIJSLpPh01dwkGAfYaBfIDh54GQ9eMf/z2npydoI2k8pePRw4dMpxNmsxnj8ThKQHpP6zpmywXL5YLxqOLhhx/A6oyRtZTW9n3UEOJYjQ/Xe7OSCE6HKkj9hiB4gorP00YhIZ4/j6DSxiIEh/OKzjtGkzEvv/oKdjLi1t27PHz0kM3VGvGB27dvM55O6ZKN3cVqRdPFCoEH2q5jt9sRtwMx0Jsimrtut1sWiyWj0ai/drFUbEGB6zqqKm4qHjw84/HjR1TGcuvWLYxJVQdJOtQBVHAY8cxmJctxSRUCBsHJMCv8pW+zg+t9/efPx3Wru8y+Oia3RxxxxLcFKfiNRlU/z5lLniGnuQrydIRkDpPEZVzJoGxktcaLwagCawzKtXiJYyzZk7ZHiIzXSCB6PoAeYmBCx4DeOc9iMeOll16iLEtyf9a5aIc3m80wxnC1ukIbg7UGrTV37t2hqkrafY3qAiMbHXbiOEv8UH0fkVz6TmXuNM4TyU+RSRzER/nEIP17DKJRQaP6QEsU53CCN5FghDZ4AovlEm0N5aji8vyCdrfn5Xt3aUTRek/jA5t9ncrRqY8aPG3TEKRApfGbshhx6/YdvHNMp0tG1QxJ+sNKhMIWCAHnOrx3rNcbPnj/fT795BPu3bpNcP6gORpnawTBeEeBZ1ZWlBIwwaNFBve7r3vLfYUYacKhxJYk+6e86+srIceoe8QRR3wzIRJJLdHiLosmJLUeD7umRpeW2WJB03a4tkV8JMBkRSQhMmy1EpRKNmqETL1F+qwqB9DYS4yZYbbNOxA2OCgZ95KGAGimsyVvvfUWf/fOj7h772VEdBwTCoJSmtlsxqVzbDYbJuMJy5MTqqqicx2j8Si+r9ZRiqLShqqI6laxznvI6cqULklfn4lDeAiqX/9dKq17iapXRkd5xeBj8PciGNOB85BcbozRTKdTEKE0lt16gylK9p3DeUfru9RDliRhCIU1aKVw3qUZ10hmWixvxc2EWAKx/K1EYbVB6zjn27Yt+92WX/3P/0FoGt5+5VUuLi8pC5vEN/L5j9dCe09lFYWA6cdsQuriX2cnP49wYG933SP2qwyz/n+SV42saWLL3QAAAABJRU5ErkJggg==;" parent="1" vertex="1">
                    <mxGeometry x="-60.99887451171875" y="-48.00334350585938" width="473" height="284" as="geometry"/>
                </mxCell>
                <mxCell id="3" value="浏览器默认坐标原点是左上角" style="text;html=1;align=center;verticalAlign=middle;resizable=0;points=[];autosize=1;strokeColor=none;fillColor=none;" parent="1" vertex="1">
                    <mxGeometry x="84" y="262" width="174" height="26" as="geometry"/>
                </mxCell>
                <UserObject label="https://developer.mozilla.org/zh-CN/docs/Web/API/CanvasRenderingContext2D" link="https://developer.mozilla.org/zh-CN/docs/Web/API/CanvasRenderingContext2D" id="4">
                    <mxCell style="text;whiteSpace=wrap;html=1;" vertex="1" parent="1">
                        <mxGeometry x="-39.99887451171875" y="331.99993896484375" width="450" height="36" as="geometry"/>
                    </mxCell>
                </UserObject>
            </root>
        </mxGraphModel>
    </diagram>
</mxfile>